<svg width="16" height="16" viewBox="0 0 16 16" fill="none" xmlns="http://www.w3.org/2000/svg">
<path d="M13.2603 15.6092L9.44182 11.5403L11.254 9.60922L15.0724 13.6782C15.317 13.9388 15.4391 14.2605 15.4391 14.6437C15.4391 15.0269 15.317 15.3487 15.0724 15.6092C14.8279 15.8698 14.5258 16 14.1664 16C13.8068 16 13.5048 15.8698 13.2603 15.6092ZM1.35191 15.6092C1.10741 15.3487 0.98517 15.0269 0.98517 14.6437C0.98517 14.2605 1.10741 13.9388 1.35191 13.6782L6.40001 8.29887L4.93304 6.73565C4.77485 6.90423 4.57349 6.98852 4.32899 6.98852C4.0845 6.98852 3.88316 6.90423 3.72496 6.73565L3.22877 6.20692V8.27589C3.22877 8.49044 3.14248 8.63604 2.96989 8.71266C2.79731 8.7893 2.63911 8.75098 2.49529 8.59773L0.14382 6.09197C5.11128e-07 5.93871 -0.0359576 5.77013 0.0359585 5.58623C0.107862 5.40231 0.244497 5.31036 0.445838 5.31036H2.38742L1.91282 4.80461C1.74022 4.62071 1.65394 4.40614 1.65394 4.16092C1.65394 3.91572 1.74022 3.70116 1.91282 3.51725L4.37215 0.896555C4.65979 0.590043 4.969 0.367808 5.29978 0.229877C5.63058 0.0919452 5.96855 0.0229794 6.31373 0.0229794C6.60137 0.0229794 6.87103 0.0689656 7.12272 0.160911C7.3744 0.25287 7.62249 0.390801 7.86699 0.574706C7.98204 0.65134 8.04317 0.758623 8.05035 0.896555C8.05755 1.03449 8.01081 1.15709 7.91013 1.26436L6.27057 3.0115L6.74518 3.51725C6.90338 3.68583 6.98248 3.9004 6.98248 4.16092C6.98248 4.42146 6.90338 4.63603 6.74518 4.80461L8.21215 6.36783L10.1537 4.29886C10.0962 4.13028 10.0495 3.95403 10.0135 3.77012C9.97755 3.58622 9.95957 3.4023 9.95957 3.2184C9.95957 2.31419 10.2508 1.55173 10.8333 0.931038C11.4158 0.310346 12.1312 0 12.9798 0C13.0949 0 13.2027 0.00383448 13.3034 0.0114897C13.4041 0.0191587 13.5048 0.0383173 13.6054 0.0689657C13.7348 0.114938 13.8175 0.210732 13.8535 0.356318C13.8895 0.501919 13.8571 0.628347 13.7564 0.73563L12.3542 2.22988C12.2679 2.32184 12.2248 2.42913 12.2248 2.55173C12.2248 2.67434 12.2679 2.78161 12.3542 2.87357L13.3034 3.88506C13.3897 3.97702 13.4903 4.02299 13.6054 4.02299C13.7205 4.02299 13.8212 3.97702 13.9075 3.88506L15.3097 2.39081C15.4104 2.28353 15.529 2.24522 15.6657 2.27587C15.8023 2.30652 15.8922 2.39848 15.9353 2.55173C15.9641 2.65902 15.982 2.76629 15.9893 2.87357C15.9965 2.98085 16 3.09579 16 3.2184C16 4.12262 15.7088 4.88507 15.1263 5.50576C14.5438 6.12645 13.8284 6.4368 12.9798 6.4368C12.8073 6.4368 12.6346 6.42147 12.4621 6.39082C12.2895 6.36017 12.1241 6.30653 11.9659 6.2299L3.16405 15.6092C2.91955 15.8698 2.61753 16 2.25798 16C1.89842 16 1.5964 15.8698 1.35191 15.6092Z" fill="#7065F0"/>
</svg>
