<svg width="138" height="87" viewBox="0 0 138 87" fill="none" xmlns="http://www.w3.org/2000/svg">
<g clip-path="url(#clip0_883_6226)">
<path d="M13.0137 84.236C13.6244 85.0684 14.3814 85.78 15.2469 86.3352C15.4309 86.4532 15.6199 86.5645 15.8121 86.6676H20.336C20.2818 86.5579 20.2292 86.4465 20.1782 86.3352C18.7756 83.3414 18.3357 79.9783 18.9205 76.7186C19.5053 73.4589 21.0853 70.4666 23.4385 68.1621C20.7041 69.0164 18.1768 70.6818 16.5237 73.0436C15.7204 74.1938 15.1492 75.4928 14.8426 76.8664C14.5694 74.1193 15.0036 71.3474 16.103 68.8203C13.883 70.6469 12.1542 73.1483 11.4953 75.9639C10.8364 78.7811 11.3145 81.9074 13.0137 84.236Z" fill="#F0F0F0"/>
<path d="M137.284 46.7026H106.528C106.338 46.7024 106.156 46.6261 106.022 46.4905C105.888 46.3549 105.813 46.171 105.812 45.9792V26.7352C105.813 26.5434 105.888 26.3595 106.022 26.2239C106.156 26.0882 106.338 26.0119 106.528 26.0117H137.284C137.474 26.0119 137.656 26.0882 137.79 26.2239C137.924 26.3595 137.999 26.5434 138 26.7352V45.9792C137.999 46.171 137.924 46.3549 137.79 46.4905C137.656 46.6261 137.474 46.7024 137.284 46.7026Z" fill="white"/>
<path d="M137.284 46.7026H106.528C106.338 46.7024 106.156 46.6261 106.022 46.4905C105.888 46.3549 105.813 46.171 105.812 45.9792V26.7352C105.813 26.5434 105.888 26.3595 106.022 26.2239C106.156 26.0882 106.338 26.0119 106.528 26.0117H137.284C137.474 26.0119 137.656 26.0882 137.79 26.2239C137.924 26.3595 137.999 26.5434 138 26.7352V45.9792C137.999 46.171 137.924 46.3549 137.79 46.4905C137.656 46.6261 137.474 46.7024 137.284 46.7026ZM106.528 26.3011C106.414 26.3012 106.305 26.347 106.224 26.4284C106.144 26.5098 106.099 26.6201 106.099 26.7352V45.9792C106.099 46.0943 106.144 46.2046 106.224 46.286C106.305 46.3673 106.414 46.4131 106.528 46.4132H137.284C137.398 46.4131 137.507 46.3673 137.588 46.286C137.668 46.2046 137.713 46.0943 137.713 45.9792V26.7352C137.713 26.6201 137.668 26.5098 137.588 26.4284C137.507 26.347 137.398 26.3012 137.284 26.3011H106.528Z" fill="#3F3D56"/>
<path d="M131.206 32.438H112.609C112.438 32.438 112.274 32.3694 112.153 32.2473C112.033 32.1252 111.965 31.9595 111.965 31.7869C111.965 31.6142 112.033 31.4486 112.153 31.3264C112.274 31.2043 112.438 31.1357 112.609 31.1357H131.206C131.376 31.1357 131.54 31.2043 131.661 31.3264C131.782 31.4486 131.849 31.6142 131.849 31.7869C131.849 31.9595 131.782 32.1252 131.661 32.2473C131.54 32.3694 131.376 32.438 131.206 32.438Z" fill="#CCCCCC"/>
<path d="M131.206 36.9233H112.609C112.438 36.9233 112.274 36.8547 112.153 36.7326C112.033 36.6105 111.965 36.4449 111.965 36.2722C111.965 36.0995 112.033 35.9339 112.153 35.8118C112.274 35.6897 112.438 35.6211 112.609 35.6211H131.206C131.376 35.6211 131.54 35.6897 131.661 35.8118C131.782 35.9339 131.849 36.0995 131.849 36.2722C131.849 36.4449 131.782 36.6105 131.661 36.7326C131.54 36.8547 131.376 36.9233 131.206 36.9233Z" fill="#CCCCCC"/>
<path d="M129.547 44.0356C130.817 44.0356 131.847 42.9938 131.847 41.7087C131.847 40.4236 130.817 39.3818 129.547 39.3818C128.276 39.3818 127.246 40.4236 127.246 41.7087C127.246 42.9938 128.276 44.0356 129.547 44.0356Z" fill="#6C63FF"/>
<path d="M129.613 40.6123V40.3906H129.678V40.6123C129.77 40.6164 129.86 40.6387 129.943 40.6779C130.004 40.7067 130.056 40.7506 130.095 40.8056C130.131 40.8564 130.15 40.9174 130.15 40.9799C130.151 41.0255 130.136 41.0701 130.107 41.1053C130.095 41.1213 130.079 41.1343 130.061 41.1431C130.042 41.152 130.023 41.1565 130.002 41.1563C129.987 41.1566 129.972 41.1538 129.959 41.148C129.945 41.1423 129.932 41.1337 129.922 41.1228C129.911 41.112 129.902 41.099 129.897 41.0847C129.891 41.0704 129.888 41.0551 129.889 41.0397C129.889 41.0181 129.893 40.9967 129.901 40.9769L129.927 40.9215C129.937 40.8984 129.941 40.8735 129.94 40.8486C129.941 40.81 129.929 40.7722 129.906 40.7414C129.881 40.7092 129.846 40.6851 129.808 40.6721C129.766 40.6582 129.722 40.6493 129.678 40.6459V41.4436L129.692 41.4524C129.828 41.525 129.951 41.619 130.057 41.731C130.104 41.7872 130.142 41.8511 130.168 41.9199C130.193 41.9865 130.207 42.0575 130.207 42.1291C130.208 42.2219 130.184 42.3132 130.138 42.3931C130.093 42.4712 130.026 42.5344 129.946 42.5754C129.862 42.6172 129.771 42.6439 129.678 42.6542V42.8919H129.613V42.6586C129.519 42.6578 129.426 42.6385 129.339 42.6017C129.253 42.5691 129.176 42.5137 129.118 42.4413C129.066 42.3763 129.039 42.2955 129.039 42.2123C129.037 42.1539 129.055 42.0965 129.09 42.0496C129.103 42.0294 129.122 42.0128 129.143 42.0013C129.164 41.9897 129.188 41.9836 129.212 41.9833C129.227 41.9828 129.241 41.9853 129.255 41.9907C129.268 41.996 129.28 42.0042 129.291 42.0145C129.301 42.0249 129.309 42.0373 129.314 42.051C129.32 42.0646 129.322 42.0792 129.322 42.0939C129.317 42.1388 129.298 42.181 129.268 42.2147C129.253 42.2355 129.24 42.2579 129.229 42.2816C129.221 42.3001 129.218 42.3199 129.218 42.3398C129.218 42.393 129.236 42.4445 129.269 42.486C129.305 42.5325 129.353 42.5684 129.407 42.5901C129.469 42.6145 129.535 42.6264 129.602 42.625H129.613V41.6726L129.531 41.6245C129.453 41.5788 129.394 41.5409 129.353 41.5107C129.313 41.4815 129.276 41.4482 129.243 41.4116C129.16 41.3223 129.114 41.2044 129.114 41.0819C129.114 41.0057 129.133 40.9307 129.169 40.8639C129.205 40.7973 129.257 40.7412 129.32 40.7013C129.409 40.6472 129.51 40.6166 129.613 40.6123ZM129.613 40.6444C129.557 40.6462 129.502 40.6585 129.451 40.6808C129.4 40.7065 129.357 40.7477 129.33 40.7987C129.299 40.8542 129.283 40.917 129.284 40.9807C129.284 41.0583 129.307 41.1342 129.352 41.1976C129.375 41.232 129.404 41.2629 129.436 41.2893C129.488 41.3286 129.542 41.3645 129.599 41.397L129.613 41.4057V40.6444ZM129.678 42.6221C129.715 42.619 129.752 42.6111 129.787 42.5988C129.816 42.5876 129.842 42.5718 129.866 42.5521C129.911 42.5138 129.945 42.4649 129.967 42.4099C129.992 42.3492 130.004 42.2839 130.004 42.2181C129.998 42.1125 129.965 42.0102 129.908 41.9216C129.851 41.833 129.771 41.7612 129.678 41.7135V42.6221Z" fill="white"/>
<path d="M116.335 33.8208H85.5786C85.3889 33.8206 85.2071 33.7443 85.073 33.6087C84.9389 33.473 84.8635 33.2891 84.8633 33.0973V13.8533C84.8635 13.6615 84.9389 13.4777 85.073 13.342C85.2071 13.2064 85.3889 13.1301 85.5786 13.1299H116.335C116.525 13.1301 116.707 13.2064 116.841 13.342C116.975 13.4777 117.05 13.6615 117.05 13.8533V33.0973C117.05 33.2891 116.975 33.473 116.841 33.6087C116.707 33.7443 116.525 33.8206 116.335 33.8208Z" fill="white"/>
<path d="M116.335 33.8208H85.5786C85.3889 33.8206 85.2071 33.7443 85.073 33.6087C84.9389 33.473 84.8635 33.2891 84.8633 33.0973V13.8533C84.8635 13.6615 84.9389 13.4777 85.073 13.342C85.2071 13.2064 85.3889 13.1301 85.5786 13.1299H116.335C116.525 13.1301 116.707 13.2064 116.841 13.342C116.975 13.4777 117.05 13.6615 117.05 13.8533V33.0973C117.05 33.2891 116.975 33.473 116.841 33.6087C116.707 33.7443 116.525 33.8206 116.335 33.8208ZM85.5786 13.4193C85.4648 13.4194 85.3557 13.4652 85.2752 13.5465C85.1948 13.6279 85.1495 13.7383 85.1494 13.8533V33.0973C85.1495 33.2124 85.1948 33.3228 85.2752 33.4041C85.3557 33.4855 85.4648 33.5313 85.5786 33.5314H116.335C116.449 33.5313 116.558 33.4855 116.638 33.4041C116.719 33.3228 116.764 33.2124 116.764 33.0973V13.8533C116.764 13.7383 116.719 13.6279 116.638 13.5465C116.558 13.4652 116.449 13.4194 116.335 13.4193H85.5786Z" fill="#3F3D56"/>
<path d="M110.252 19.5571H91.6555C91.4847 19.5571 91.321 19.4885 91.2003 19.3664C91.0795 19.2443 91.0117 19.0787 91.0117 18.906C91.0117 18.7333 91.0795 18.5677 91.2003 18.4456C91.321 18.3235 91.4847 18.2549 91.6555 18.2549H110.252C110.423 18.2549 110.587 18.3235 110.708 18.4456C110.828 18.5677 110.896 18.7333 110.896 18.906C110.896 19.0787 110.828 19.2443 110.708 19.3664C110.587 19.4885 110.423 19.5571 110.252 19.5571Z" fill="#CCCCCC"/>
<path d="M110.252 24.0425H91.6555C91.4847 24.0425 91.321 23.9739 91.2003 23.8518C91.0795 23.7297 91.0117 23.564 91.0117 23.3914C91.0117 23.2187 91.0795 23.0531 91.2003 22.9309C91.321 22.8088 91.4847 22.7402 91.6555 22.7402H110.252C110.423 22.7402 110.587 22.8088 110.708 22.9309C110.828 23.0531 110.896 23.2187 110.896 23.3914C110.896 23.564 110.828 23.7297 110.708 23.8518C110.587 23.9739 110.423 24.0425 110.252 24.0425Z" fill="#CCCCCC"/>
<path d="M108.597 31.1548C109.868 31.1548 110.898 30.113 110.898 28.8279C110.898 27.5428 109.868 26.501 108.597 26.501C107.327 26.501 106.297 27.5428 106.297 28.8279C106.297 30.113 107.327 31.1548 108.597 31.1548Z" fill="#6C63FF"/>
<path d="M108.66 27.7315V27.5098H108.725V27.7315C108.817 27.7355 108.907 27.7578 108.99 27.7971C109.051 27.8258 109.103 27.8698 109.142 27.9247C109.177 27.9756 109.197 28.0365 109.196 28.099C109.198 28.1446 109.183 28.1892 109.154 28.2244C109.141 28.2405 109.126 28.2534 109.107 28.2622C109.089 28.2711 109.069 28.2756 109.049 28.2755C109.034 28.2758 109.019 28.2729 109.005 28.2672C108.992 28.2614 108.979 28.2528 108.969 28.2419C108.958 28.2311 108.949 28.2181 108.943 28.2038C108.938 28.1895 108.935 28.1742 108.935 28.1588C108.935 28.1372 108.94 28.1159 108.948 28.0961L108.974 28.0407C108.983 28.0175 108.988 27.9927 108.987 27.9677C108.988 27.9291 108.976 27.8913 108.953 27.8606C108.927 27.8283 108.893 27.8042 108.855 27.7913C108.813 27.7773 108.769 27.7685 108.725 27.765V28.5628L108.739 28.5715C108.875 28.6441 108.998 28.7382 109.104 28.8501C109.151 28.9064 109.188 28.9702 109.214 29.039C109.24 29.1057 109.254 29.1766 109.254 29.2483C109.255 29.341 109.231 29.4323 109.185 29.5123C109.139 29.5903 109.073 29.6536 108.993 29.6946C108.909 29.7363 108.818 29.763 108.725 29.7733V30.0111H108.66V29.7777C108.566 29.777 108.473 29.7576 108.386 29.7208C108.299 29.6883 108.223 29.6329 108.165 29.5604C108.113 29.4954 108.086 29.4146 108.086 29.3314C108.084 29.273 108.102 29.2157 108.137 29.1688C108.15 29.1486 108.168 29.132 108.19 29.1204C108.211 29.1089 108.235 29.1027 108.259 29.1024C108.274 29.1019 108.288 29.1044 108.302 29.1098C108.315 29.1152 108.327 29.1233 108.338 29.1337C108.348 29.144 108.356 29.1564 108.361 29.1701C108.367 29.1837 108.369 29.1984 108.369 29.213C108.364 29.2579 108.345 29.3002 108.315 29.3338C108.3 29.3546 108.287 29.3771 108.276 29.4008C108.268 29.4192 108.265 29.439 108.265 29.459C108.265 29.5122 108.283 29.5637 108.316 29.6052C108.352 29.6517 108.4 29.6876 108.454 29.7092C108.516 29.7337 108.582 29.7456 108.648 29.7442H108.66V28.7918L108.578 28.7436C108.5 28.698 108.441 28.66 108.4 28.6299C108.36 28.6006 108.323 28.5674 108.289 28.5307C108.207 28.4415 108.161 28.3235 108.161 28.2011C108.161 28.1249 108.18 28.0498 108.216 27.9831C108.251 27.9164 108.304 27.8604 108.367 27.8204C108.456 27.7664 108.557 27.7358 108.66 27.7315ZM108.66 27.7635C108.604 27.7653 108.549 27.7776 108.498 27.8C108.446 27.8257 108.404 27.8669 108.377 27.9179C108.346 27.9733 108.33 28.0361 108.331 28.0998C108.331 28.1775 108.354 28.2534 108.399 28.3167C108.422 28.3512 108.45 28.3821 108.483 28.4084C108.535 28.4477 108.589 28.4837 108.646 28.5161L108.66 28.5249V27.7635ZM108.725 29.7413C108.762 29.7381 108.799 29.7303 108.834 29.7179C108.863 29.7067 108.889 29.691 108.913 29.6713C108.957 29.6329 108.992 29.5841 109.013 29.5291C109.038 29.4683 109.051 29.4031 109.051 29.3373C109.045 29.2316 109.012 29.1293 108.955 29.0407C108.897 28.9522 108.818 28.8804 108.725 28.8326V29.7413Z" fill="white"/>
<path d="M52.5761 30.9501C52.3081 30.9306 52.0392 30.9706 51.7882 31.0676C51.5372 31.1645 51.3103 31.3159 51.1234 31.5111C50.9365 31.7063 50.7942 31.9406 50.7066 32.1974C50.6189 32.4543 50.588 32.7274 50.616 32.9977L44.7031 35.8014L47.5972 37.5938L52.7684 34.6565C53.2142 34.5788 53.6163 34.3385 53.8985 33.981C54.1808 33.6235 54.3236 33.1738 54.2999 32.7169C54.2762 32.26 54.0876 31.8279 53.7699 31.5022C53.4522 31.1766 53.0274 30.9802 52.5761 30.9501Z" fill="#FFB6B6"/>
<path d="M28.1058 84.8935L30.1479 84.8934L31.1194 76.9268L28.1055 76.9269L28.1058 84.8935Z" fill="#FFB6B6"/>
<path d="M27.5859 84.2189L31.6074 84.2188H31.6076C32.2873 84.2188 32.9391 84.4919 33.4197 84.978C33.9004 85.4641 34.1704 86.1234 34.1704 86.8109V86.8951L27.5861 86.8954L27.5859 84.2189Z" fill="#2F2E41"/>
<path d="M38.5277 84.8935L40.5697 84.8934L41.5412 76.9268L38.5273 76.9269L38.5277 84.8935Z" fill="#FFB6B6"/>
<path d="M38.0078 84.2189L42.0293 84.2188H42.0295C42.7092 84.2188 43.361 84.4919 43.8416 84.978C44.3222 85.4641 44.5923 86.1234 44.5923 86.8109V86.8951L38.0079 86.8954L38.0078 84.2189Z" fill="#2F2E41"/>
<path d="M39.8934 43.5723L40.9298 45.8292L42.7984 66.013L41.3459 83.3614H37.9488L33.9402 56.0163L32.0574 82.7314L27.4737 82.5443L26.5938 46.3245L39.8934 43.5723Z" fill="#2F2E41"/>
<path d="M23.3747 24.947L27.6717 23.1787L33.7368 23.5228L39.1288 25.5102L40.9277 45.8298C36.2368 48.4207 31.4852 49.1278 26.6508 47.2752L22.1641 34.0406L23.3747 24.947Z" fill="#E4E4E4"/>
<path d="M37.4514 26.0471L39.3583 25.5099C39.3583 25.5099 40.8006 24.5614 41.2751 27.381C41.7496 30.2006 44.1913 34.5863 44.1913 34.5863L48.3713 32.3332L50.3065 36.6078L43.7054 40.6522L36.7539 33.5678L37.4514 26.0471Z" fill="#E4E4E4"/>
<path d="M26.9924 19.4142C26.7608 18.8827 26.635 18.3103 26.6222 17.7297C26.6093 17.149 26.7097 16.5715 26.9175 16.0301C27.1253 15.4887 27.4365 14.9939 27.8333 14.5742C28.2302 14.1544 28.7049 13.8178 29.2303 13.5836C29.7558 13.3494 30.3217 13.2221 30.8957 13.2091C31.4698 13.1961 32.0408 13.2976 32.5761 13.5078C33.1114 13.718 33.6005 14.0327 34.0155 14.4341C34.4305 14.8355 34.7633 15.3156 34.9949 15.8471L35.0199 15.9056C35.48 16.9825 35.4983 18.2002 35.0707 19.2907C34.859 19.8307 34.5442 20.3233 34.1443 20.7402C33.7445 21.1571 33.2673 21.4903 32.7401 21.7208C31.6754 22.1861 30.4715 22.2046 29.3933 21.7722C28.3151 21.3397 27.4509 20.4918 26.9908 19.4149L26.9924 19.4142Z" fill="#FFB6B6"/>
<path d="M32.9277 15.3663C33.8369 15.5332 35.2439 16.1121 36.0248 15.4329C35.6392 14.9772 35.1541 14.6183 34.6078 14.3846C34.5002 14.3485 34.4006 14.2916 34.3145 14.2169C34.0483 13.9448 34.254 13.4759 34.1322 13.108C34.073 12.9736 33.9838 12.8549 33.8715 12.7612C33.7593 12.6676 33.6271 12.6016 33.4853 12.5685C33.2143 12.4865 32.9303 12.4732 32.664 12.3737C32.034 12.1342 31.5861 11.4488 30.9403 11.2626C30.3776 11.0979 29.8114 11.3538 29.3258 11.6524C28.8401 11.9509 28.3598 12.3052 27.7916 12.3619C27.3671 12.401 27.0983 13.1073 26.6721 13.128C25.779 13.172 25.8286 12.5766 25.7625 13.5256C25.7244 14.0919 24.9244 15.2185 24.9374 15.7898C24.9506 16.1641 24.8851 16.5348 24.8957 16.9103C24.9197 17.6254 25.2033 18.3065 25.6923 18.8236C26.0989 19.2465 26.6278 19.5318 26.97 20.0139C27.148 20.2698 27.2715 20.5685 27.4787 20.8001C27.6859 21.0317 28.0369 21.1711 28.2681 21.0057C28.4994 20.8404 28.5037 20.4826 28.6185 20.2103C28.6888 20.0434 28.8091 19.9029 28.9623 19.8086C29.1156 19.7142 29.2942 19.6707 29.4731 19.6841C29.6589 19.7087 29.8343 19.7852 29.9795 19.9051C30.1246 20.025 30.2339 20.1834 30.2949 20.3627C30.1866 19.761 29.9011 19.1972 29.7926 18.5951C29.6841 17.993 29.8255 17.2736 30.3381 17.0386C30.5582 16.935 30.8555 16.9071 30.944 16.6684C30.9982 16.5246 30.9486 16.3548 30.9695 16.1992C31.0821 15.4372 32.3349 15.2487 32.9277 15.3663Z" fill="#2F2E41"/>
<path d="M27.1674 47.0403C27.1282 46.7715 27.0312 46.5146 26.8833 46.2878C26.7353 46.061 26.54 45.8698 26.3111 45.7276C26.0821 45.5854 25.8252 45.4957 25.5583 45.4648C25.2914 45.4339 25.021 45.4626 24.7662 45.5488L20.7783 40.3184L19.6758 43.5645L23.6318 48.0338C23.8034 48.4571 24.1226 48.802 24.5288 49.0032C24.935 49.2044 25.4001 49.2479 25.8359 49.1254C26.2717 49.003 26.6479 48.7231 26.8933 48.3388C27.1387 47.9545 27.2362 47.4925 27.1674 47.0403Z" fill="#FFB6B6"/>
<path d="M24.7536 25.9336L23.3762 24.9471C23.3762 24.9471 20.2249 24.7645 19.7665 27.3814L13.9883 36.9957L21.1526 46.9926L24.626 43.2944L20.2433 38.1141L23.923 31.2804L24.7536 25.9336Z" fill="#E4E4E4"/>
<path d="M58.3118 27.4571H58.2396V25.4548C58.2396 25.3026 58.2099 25.1519 58.1523 25.0113C58.0948 24.8707 58.0104 24.7429 57.904 24.6353C57.7976 24.5277 57.6713 24.4423 57.5323 24.3841C57.3933 24.3259 57.2443 24.2959 57.0938 24.2959H52.8997C52.7492 24.2959 52.6002 24.3259 52.4612 24.3841C52.3222 24.4423 52.1959 24.5277 52.0895 24.6353C51.9831 24.7429 51.8987 24.8707 51.8411 25.0113C51.7835 25.1519 51.7539 25.3026 51.7539 25.4548V36.4396C51.7539 36.5918 51.7835 36.7424 51.8411 36.883C51.8987 37.0237 51.9831 37.1514 52.0895 37.259C52.1959 37.3666 52.3222 37.452 52.4612 37.5102C52.6002 37.5685 52.7492 37.5984 52.8997 37.5984H57.0938C57.2443 37.5984 57.3932 37.5685 57.5323 37.5102C57.6713 37.452 57.7976 37.3666 57.904 37.259C58.0104 37.1514 58.0948 37.0237 58.1523 36.8831C58.2099 36.7425 58.2396 36.5918 58.2396 36.4396V28.8824H58.3118V27.4571Z" fill="#3F3D56"/>
<path d="M57.1403 24.5967H56.5928C56.618 24.6591 56.6276 24.7268 56.6208 24.7939C56.614 24.861 56.591 24.9253 56.5538 24.9813C56.5166 25.0373 56.4664 25.0831 56.4076 25.1148C56.3487 25.1465 56.2831 25.1631 56.2164 25.1631H53.8137C53.747 25.1631 53.6814 25.1465 53.6225 25.1148C53.5637 25.0831 53.5135 25.0373 53.4763 24.9813C53.4391 24.9253 53.4161 24.861 53.4093 24.7939C53.4025 24.7268 53.4121 24.6591 53.4373 24.5967H52.926C52.699 24.5967 52.4814 24.6879 52.3209 24.8502C52.1605 25.0125 52.0703 25.2326 52.0703 25.4621V36.4308C52.0703 36.6603 52.1605 36.8805 52.3209 37.0428C52.4814 37.2051 52.699 37.2962 52.926 37.2962H57.1403C57.3672 37.2962 57.5848 37.2051 57.7453 37.0428C57.9058 36.8805 57.9959 36.6603 57.9959 36.4308V25.4621C57.9959 25.2326 57.9058 25.0125 57.7453 24.8502C57.5848 24.6879 57.3672 24.5967 57.1403 24.5967Z" fill="#6C63FF"/>
<path d="M94.9718 20.6909H64.2153C64.0256 20.6907 63.8438 20.6144 63.7097 20.4788C63.5756 20.3431 63.5002 20.1593 63.5 19.9675V0.72346C63.5002 0.531654 63.5756 0.347766 63.7097 0.212138C63.8438 0.0765112 64.0256 0.000219509 64.2153 0H94.9718C95.1615 0.00021951 95.3433 0.0765112 95.4774 0.212138C95.6115 0.347766 95.6869 0.531654 95.6871 0.72346V19.9675C95.6869 20.1593 95.6115 20.3431 95.4774 20.4788C95.3433 20.6144 95.1615 20.6907 94.9718 20.6909Z" fill="white"/>
<path d="M94.9718 20.6909H64.2153C64.0256 20.6907 63.8438 20.6144 63.7097 20.4788C63.5756 20.3431 63.5002 20.1593 63.5 19.9675V0.72346C63.5002 0.531654 63.5756 0.347766 63.7097 0.212138C63.8438 0.0765112 64.0256 0.000219509 64.2153 0H94.9718C95.1615 0.00021951 95.3433 0.0765112 95.4774 0.212138C95.6115 0.347766 95.6869 0.531654 95.6871 0.72346V19.9675C95.6869 20.1593 95.6115 20.3431 95.4774 20.4788C95.3433 20.6144 95.1615 20.6907 94.9718 20.6909ZM64.2153 0.289383C64.1015 0.289509 63.9924 0.335283 63.9119 0.416661C63.8315 0.498039 63.7862 0.608375 63.7861 0.72346V19.9675C63.7862 20.0825 63.8315 20.1929 63.9119 20.2743C63.9924 20.3556 64.1015 20.4014 64.2153 20.4015H94.9718C95.0856 20.4014 95.1947 20.3556 95.2752 20.2743C95.3556 20.1929 95.4009 20.0825 95.401 19.9675V0.72346C95.4009 0.608375 95.3556 0.498039 95.2752 0.416661C95.1947 0.335283 95.0856 0.289509 94.9718 0.289383H64.2153Z" fill="#3F3D56"/>
<path d="M88.8931 6.42723H70.2961C70.1254 6.42723 69.9616 6.35863 69.8409 6.23652C69.7202 6.11442 69.6523 5.9488 69.6523 5.77611C69.6523 5.60343 69.7202 5.43782 69.8409 5.31571C69.9616 5.1936 70.1254 5.125 70.2961 5.125H88.8931C89.0638 5.125 89.2276 5.1936 89.3483 5.31571C89.469 5.43782 89.5368 5.60343 89.5368 5.77611C89.5368 5.9488 89.469 6.11442 89.3483 6.23652C89.2276 6.35863 89.0638 6.42723 88.8931 6.42723Z" fill="#CCCCCC"/>
<path d="M88.8931 10.9126H70.2961C70.1254 10.9126 69.9616 10.844 69.8409 10.7219C69.7202 10.5998 69.6523 10.4342 69.6523 10.2615C69.6523 10.0888 69.7202 9.92317 69.8409 9.80106C69.9616 9.67895 70.1254 9.61035 70.2961 9.61035H88.8931C89.0638 9.61035 89.2276 9.67895 89.3483 9.80106C89.469 9.92317 89.5368 10.0888 89.5368 10.2615C89.5368 10.4342 89.469 10.5998 89.3483 10.7219C89.2276 10.844 89.0638 10.9126 88.8931 10.9126Z" fill="#CCCCCC"/>
<path d="M87.2341 18.0239C88.5047 18.0239 89.5347 16.9821 89.5347 15.697C89.5347 14.4119 88.5047 13.3701 87.2341 13.3701C85.9636 13.3701 84.9336 14.4119 84.9336 15.697C84.9336 16.9821 85.9636 18.0239 87.2341 18.0239Z" fill="#6C63FF"/>
<path d="M87.2967 14.6006V14.3789H87.3616V14.6006C87.4534 14.6046 87.5436 14.6269 87.6269 14.6662C87.6873 14.695 87.7395 14.7389 87.7783 14.7939C87.8142 14.8447 87.8333 14.9057 87.8331 14.9681C87.8345 15.0138 87.8193 15.0584 87.7906 15.0936C87.7782 15.1096 87.7623 15.1225 87.7441 15.1314C87.726 15.1402 87.7061 15.1448 87.686 15.1446C87.671 15.1449 87.6561 15.1421 87.6422 15.1363C87.6283 15.1305 87.6157 15.122 87.6053 15.1111C87.5944 15.1002 87.5859 15.0873 87.5802 15.073C87.5745 15.0587 87.5717 15.0434 87.5721 15.0279C87.5721 15.0064 87.5766 14.985 87.5851 14.9652L87.611 14.9098C87.6202 14.8866 87.6246 14.8618 87.624 14.8369C87.6247 14.7982 87.6126 14.7605 87.5894 14.7297C87.5641 14.6974 87.53 14.6733 87.4914 14.6604C87.4493 14.6464 87.4057 14.6376 87.3616 14.6341V15.4319L87.376 15.4407C87.5115 15.5132 87.6347 15.6073 87.7408 15.7193C87.7878 15.7755 87.8251 15.8394 87.8511 15.9081C87.877 15.9748 87.8905 16.0458 87.8908 16.1174C87.892 16.2102 87.868 16.3015 87.8216 16.3814C87.7762 16.4595 87.7096 16.5227 87.6298 16.5637C87.5456 16.6055 87.4548 16.6321 87.3616 16.6425V16.8802H87.2967V16.6469C87.2026 16.6461 87.1095 16.6268 87.0227 16.59C86.9361 16.5574 86.8597 16.502 86.8014 16.4295C86.75 16.3646 86.7223 16.2837 86.7228 16.2006C86.721 16.1421 86.7388 16.0848 86.7733 16.0379C86.7869 16.0177 86.8052 16.0011 86.8265 15.9895C86.8478 15.978 86.8716 15.9718 86.8958 15.9716C86.9103 15.9711 86.9248 15.9736 86.9383 15.9789C86.9518 15.9843 86.9641 15.9924 86.9744 16.0028C86.9846 16.0132 86.9927 16.0256 86.998 16.0392C87.0034 16.0529 87.0059 16.0675 87.0054 16.0822C87.0005 16.1271 86.9819 16.1693 86.9521 16.203C86.9365 16.2238 86.9232 16.2462 86.9124 16.2699C86.905 16.2884 86.9013 16.3082 86.9016 16.3281C86.9018 16.3813 86.9199 16.4328 86.9528 16.4743C86.9887 16.5208 87.0362 16.5567 87.0905 16.5784C87.1525 16.6028 87.2186 16.6147 87.2852 16.6133H87.2967V15.6609L87.2145 15.6128C87.1366 15.5671 87.0773 15.5292 87.0364 15.499C86.9965 15.4697 86.9595 15.4365 86.9261 15.3998C86.8433 15.3106 86.7973 15.1926 86.7978 15.0702C86.7974 14.994 86.8162 14.919 86.8526 14.8522C86.8882 14.7856 86.9404 14.7295 87.004 14.6896C87.0926 14.6355 87.1933 14.6049 87.2967 14.6006ZM87.2967 14.6327C87.2408 14.6344 87.1858 14.6468 87.1345 14.6691C87.0831 14.6948 87.041 14.736 87.0138 14.787C86.9829 14.8425 86.9671 14.9053 86.9679 14.9689C86.9673 15.0466 86.9909 15.1225 87.0354 15.1858C87.0589 15.2203 87.0872 15.2512 87.1194 15.2776C87.1714 15.3169 87.2259 15.3528 87.2823 15.3853L87.2967 15.394V14.6327ZM87.3616 16.6104C87.3988 16.6073 87.4354 16.5994 87.4707 16.5871C87.4993 16.5759 87.5259 16.5601 87.5496 16.5404C87.5941 16.502 87.6286 16.4532 87.6501 16.3982C87.6752 16.3375 87.6879 16.2722 87.6875 16.2064C87.6817 16.1007 87.6486 15.9985 87.5914 15.9099C87.5342 15.8213 87.4549 15.7495 87.3616 15.7018V16.6104Z" fill="white"/>
<path d="M62.7723 87.0004H0.164325C0.120744 87.0004 0.0789467 86.9829 0.0481297 86.9517C0.0173127 86.9205 0 86.8783 0 86.8342C0 86.7901 0.0173127 86.7478 0.0481297 86.7167C0.0789467 86.6855 0.120744 86.668 0.164325 86.668H62.7723C62.8159 86.668 62.8577 86.6855 62.8885 86.7167C62.9193 86.7478 62.9366 86.7901 62.9366 86.8342C62.9366 86.8783 62.9193 86.9205 62.8885 86.9517C62.8577 86.9829 62.8159 87.0004 62.7723 87.0004Z" fill="#CACACA"/>
</g>
<defs>
<clipPath id="clip0_883_6226">
<rect width="138" height="87" fill="white"/>
</clipPath>
</defs>
</svg>
