<svg width="17" height="17" viewBox="0 0 17 17" fill="none" xmlns="http://www.w3.org/2000/svg">
<path d="M9.88371 1.18578L9.97704 1.27325L16.9488 8.12232L16.201 8.88285L15.241 7.93992L15.2416 15.1692C15.2416 15.7314 14.8064 16.1922 14.2544 16.2327L14.1749 16.2359H3.50824C2.94611 16.2359 2.48531 15.8007 2.44424 15.2487L2.44158 15.1692L2.44104 7.94045L1.48211 8.88285L0.734375 8.12232L7.69864 1.28018C8.29224 0.674316 9.24957 0.640717 9.88371 1.18578ZM8.50451 1.98792L8.45331 2.03432L3.50771 6.89245L3.50824 15.1692L6.17438 15.1687L6.17491 9.83592C6.17491 9.27378 6.61011 8.81298 7.16211 8.77192L7.24157 8.76925H10.4416C11.0037 8.76925 11.4645 9.20445 11.5056 9.75645L11.5082 9.83592L11.5077 15.1687L14.1749 15.1692L14.1744 6.89192L9.21491 2.01938C9.02077 1.82898 8.71784 1.81725 8.50451 1.98792ZM10.4416 9.83592H7.24157L7.24104 15.1687H10.441L10.4416 9.83592Z" fill="#7065F0"/>
</svg>
