<svg width="22" height="23" viewBox="0 0 22 23" fill="none" xmlns="http://www.w3.org/2000/svg">
<path d="M10.3848 0.258301C10.2988 0.361979 10.2308 0.495279 10.1807 0.658203C10.1305 0.821127 10.0625 1.09513 9.97656 1.48022C9.76172 2.44295 9.51107 3.4353 9.22461 4.45728C8.93815 5.47925 8.73047 6.12354 8.60156 6.39014C8.47266 6.67155 8.28288 6.97148 8.03223 7.28992C7.78158 7.60836 7.47721 7.95272 7.11914 8.323C6.88997 8.57479 6.67155 8.78215 6.46387 8.94507C6.25619 9.10799 5.96615 9.30794 5.59375 9.54492C5.37891 9.67822 5.21061 9.80782 5.08887 9.93372C4.96712 10.0596 4.8776 10.1892 4.82031 10.3225L4.73438 10.5002V22.0974L4.8418 22.3196C4.87044 22.3788 4.91341 22.4455 4.9707 22.5195C5.02799 22.5936 5.07812 22.6528 5.12109 22.6973L5.29297 22.875H18.4629L18.6348 22.7195C18.8639 22.5121 19.0573 22.2863 19.2148 22.0419C19.3724 21.7975 19.5013 21.505 19.6016 21.1643C19.6302 21.0606 19.7591 20.6089 19.9883 19.8091C20.2318 18.9945 20.486 18.1169 20.751 17.1764C21.016 16.2359 21.263 15.3805 21.4922 14.6104C21.707 13.8254 21.8216 13.418 21.8359 13.3884C21.8646 13.2551 21.8896 13.107 21.9111 12.9441C21.9326 12.7812 21.9434 12.6182 21.9434 12.4553C21.9434 11.6851 21.7249 10.9964 21.2881 10.3892C20.8512 9.7819 20.2891 9.36719 19.6016 9.14502H19.5801C19.4655 9.10059 19.3044 9.07467 19.0967 9.06726C18.889 9.05986 18.2982 9.04875 17.3242 9.03394C17.3099 9.03394 17.2956 9.03394 17.2812 9.03394C17.2669 9.03394 17.2526 9.03394 17.2383 9.03394C16.8945 9.03394 16.5544 9.03394 16.2178 9.03394C15.8812 9.03394 15.5482 9.02653 15.2188 9.01172H15.3047C15.3047 9.01172 15.3154 8.97469 15.3369 8.90063C15.3584 8.82658 15.3835 8.74512 15.4121 8.65625C15.584 7.98975 15.7129 7.21586 15.7988 6.33459C15.8848 5.45333 15.9062 4.69425 15.8633 4.05737C15.806 3.12427 15.652 2.35038 15.4014 1.73572C15.1507 1.12105 14.7962 0.635986 14.3379 0.280518L14.123 0.125H10.4492L10.3848 0.258301ZM12.5117 1.65796C12.6406 1.70239 12.7624 1.75793 12.877 1.82458C12.9915 1.89124 13.099 1.96159 13.1992 2.03564C13.5286 2.33187 13.7292 2.97616 13.8008 3.96851C13.8724 4.96086 13.8008 6.0717 13.5859 7.30103C13.5143 7.74536 13.4284 8.13416 13.3281 8.46741C13.2279 8.80066 13.0417 9.33757 12.7695 10.0781C12.6549 10.3595 12.5618 10.6039 12.4902 10.8113C12.4186 11.0186 12.3828 11.1223 12.3828 11.1223C12.3828 11.1371 12.7051 11.1482 13.3496 11.1556C13.9941 11.163 14.7747 11.1667 15.6914 11.1667C17.2812 11.1667 18.2373 11.1705 18.5596 11.1779C18.8818 11.1853 19.0788 11.2038 19.1504 11.2334C19.265 11.2926 19.3831 11.3815 19.5049 11.5C19.6266 11.6185 19.7161 11.7444 19.7734 11.8777C19.8164 11.9666 19.8451 12.0443 19.8594 12.111C19.8737 12.1776 19.8809 12.285 19.8809 12.4331C19.8809 12.596 19.8307 12.8626 19.7305 13.2329C19.6302 13.6032 19.3008 14.7585 18.7422 16.6987C18.4414 17.7799 18.1729 18.7168 17.9365 19.5092C17.7002 20.3016 17.5749 20.72 17.5605 20.7644C17.4889 20.9421 17.3493 21.0903 17.1416 21.2087C16.9339 21.3272 16.6725 21.4013 16.3574 21.4309C16.2715 21.4457 15.7809 21.4568 14.8857 21.4642C13.9906 21.4716 12.9557 21.4753 11.7812 21.4753H7.54883V19.5647L7.26953 20.0757L6.88281 20.7644L6.77539 20.9644V16.1211V11.3L7.29102 10.9224C7.9069 10.5076 8.51921 9.94853 9.12793 9.245C9.73665 8.54146 10.1842 7.87866 10.4707 7.25659C10.6426 6.88631 10.8789 6.16427 11.1797 5.09045C11.4805 4.01664 11.7454 2.96134 11.9746 1.92456C12.0176 1.74683 12.0462 1.64315 12.0605 1.61353C12.0749 1.5839 12.1107 1.56909 12.168 1.56909C12.1966 1.56909 12.2432 1.5765 12.3076 1.59131C12.3721 1.60612 12.4401 1.62834 12.5117 1.65796ZM0.996094 10.3003C0.910156 10.3595 0.834961 10.4262 0.770508 10.5002C0.706055 10.5743 0.652344 10.6558 0.609375 10.7446L0.523438 10.9446V22.1863L0.630859 22.4084C0.659505 22.4677 0.698893 22.5269 0.749023 22.5862C0.799154 22.6454 0.845703 22.6973 0.888672 22.7417L1.06055 22.8528L2.02734 22.875C2.47135 22.875 2.75065 22.8713 2.86523 22.8639C2.97982 22.8565 3.08724 22.8306 3.1875 22.7861C3.33073 22.7417 3.47396 22.6454 3.61719 22.4973C3.76042 22.3492 3.86784 22.1937 3.93945 22.0308C4.05404 21.779 4.12207 21.4494 4.14355 21.0421C4.16504 20.6348 4.17578 19.1352 4.17578 16.5432C4.17578 14.2623 4.1722 12.8923 4.16504 12.4331C4.15788 11.974 4.13281 11.6703 4.08984 11.5222C4.03255 11.2556 3.93587 11.026 3.7998 10.8335C3.66374 10.641 3.5026 10.4928 3.31641 10.3892L3.12305 10.2781L2.11328 10.2559C1.68359 10.2559 1.40072 10.2596 1.26465 10.267C1.12858 10.2744 1.03906 10.2855 0.996094 10.3003Z" fill="#9F9F9F"/>
</svg>
