<svg width="32" height="32" viewBox="0 0 32 32" fill="none" xmlns="http://www.w3.org/2000/svg">
<g clip-path="url(#clip0_1194_1001)">
<path fill-rule="evenodd" clip-rule="evenodd" d="M16 0.377563L15.7696 0.777564L13.5382 4.6374H15.2V18.391L3.28864 25.2678L2.4576 23.8284L0 28.0905H0.46112L4.92 28.0931L4.08864 26.6537L16 19.7769L27.9114 26.6537L27.08 28.0931L32 28.0905L31.7696 27.6905L29.5424 23.8284L28.7114 25.2681L16.8 18.3913V4.63708H18.4618L16 0.377563Z" fill="#7065F0"/>
<path fill-rule="evenodd" clip-rule="evenodd" d="M15.6987 9.10432L6.33994 15.2416C6.12426 15.3974 6.06634 15.5747 6.0625 15.736V24.9072C6.0625 25.1088 6.16746 25.2963 6.33994 25.4016L15.6987 31.5386C15.9243 31.6618 16.1537 31.641 16.306 31.5354L25.6603 25.4016C25.745 25.3499 25.815 25.2772 25.8636 25.1907C25.9122 25.1041 25.9377 25.0065 25.9377 24.9072V15.736C25.9358 15.4915 25.8321 15.3626 25.6513 15.2355L16.3015 9.10432C16.0788 8.97728 15.9041 9.03776 15.6987 9.10432ZM16.0001 10.2755L24.1649 15.6854L15.995 21.1914L7.7537 15.7357L16.0001 10.2755ZM7.2193 16.7661L15.4215 22.1984V30.0144L7.21994 24.5821L7.2193 16.7661ZM24.7809 16.7661V24.5818L16.5787 30.0141V22.1978L24.7809 16.7661Z" fill="#7065F0"/>
</g>
<defs>
<clipPath id="clip0_1194_1001">
<rect width="32" height="32" fill="white"/>
</clipPath>
</defs>
</svg>
