<svg width="30" height="30" viewBox="0 0 30 30" fill="none" xmlns="http://www.w3.org/2000/svg">
<path d="M1.66536 7.00004C2.3987 7.00004 2.9987 6.40004 2.9987 5.66671V4.33337C2.9987 3.60004 3.5987 3.00004 4.33203 3.00004H5.66536C6.3987 3.00004 6.9987 2.40004 6.9987 1.66671C6.9987 0.933374 6.3987 0.333374 5.66536 0.333374H4.33203C2.1187 0.333374 0.332031 2.12004 0.332031 4.33337V5.66671C0.332031 6.40004 0.932031 7.00004 1.66536 7.00004ZM5.66536 27H4.33203C3.5987 27 2.9987 26.4 2.9987 25.6667V24.3334C2.9987 23.6 2.3987 23 1.66536 23C0.932031 23 0.332031 23.6 0.332031 24.3334V25.6667C0.332031 27.88 2.1187 29.6667 4.33203 29.6667H5.66536C6.3987 29.6667 6.9987 29.0667 6.9987 28.3334C6.9987 27.6 6.3987 27 5.66536 27ZM25.6654 0.333374H24.332C23.5987 0.333374 22.9987 0.933374 22.9987 1.66671C22.9987 2.40004 23.5987 3.00004 24.332 3.00004H25.6654C26.3987 3.00004 26.9987 3.60004 26.9987 4.33337V5.66671C26.9987 6.40004 27.5987 7.00004 28.332 7.00004C29.0654 7.00004 29.6654 6.40004 29.6654 5.66671V4.33337C29.6654 2.12004 27.8787 0.333374 25.6654 0.333374ZM28.332 23C27.5987 23 26.9987 23.6 26.9987 24.3334V25.6667C26.9987 26.4 26.3987 27 25.6654 27H24.332C23.5987 27 22.9987 27.6 22.9987 28.3334C22.9987 29.0667 23.5987 29.6667 24.332 29.6667H25.6654C27.8787 29.6667 29.6654 27.88 29.6654 25.6667V24.3334C29.6654 23.6 29.0654 23 28.332 23ZM24.332 18.8267V11.1734C24.332 10.2134 23.8254 9.33337 22.9987 8.86671L16.332 5.02671C15.9187 4.78671 15.4654 4.66671 14.9987 4.66671C14.532 4.66671 14.0787 4.78671 13.6654 5.02671L6.9987 8.85337C6.17203 9.33337 5.66536 10.2134 5.66536 11.1734V18.8267C5.66536 19.7867 6.17203 20.6667 6.9987 21.1334L13.6654 24.9734C14.0787 25.2134 14.532 25.3334 14.9987 25.3334C15.4654 25.3334 15.9187 25.2134 16.332 24.9734L22.9987 21.1334C23.8254 20.6667 24.332 19.7867 24.332 18.8267ZM13.6654 21.8934L8.33203 18.8267V12.6534L13.6654 15.76V21.8934ZM14.9987 13.4534L9.7187 10.3734L14.9987 7.33337L20.2787 10.3734L14.9987 13.4534ZM21.6654 18.8267L16.332 21.8934V15.76L21.6654 12.6534V18.8267Z" fill="#7065F0"/>
</svg>
