<svg width="20" height="21" viewBox="0 0 20 21" fill="none" xmlns="http://www.w3.org/2000/svg">
<path fill-rule="evenodd" clip-rule="evenodd" d="M16.75 17.427C17.2105 17.0145 17.5 16.416 17.5 15.75V8.96555C17.5001 8.62092 17.421 8.28088 17.2689 7.97165C17.1167 7.66242 16.8956 7.39227 16.6225 7.18205L11.3725 3.14405C10.9791 2.84118 10.4965 2.67695 10 2.67695C9.50349 2.67695 9.02093 2.84118 8.6275 3.14405L3.3775 7.18205C3.10421 7.39243 2.88295 7.66281 2.7308 7.97232C2.57864 8.28183 2.49968 8.62217 2.5 8.96705V15.75C2.49921 16.0449 2.55652 16.3369 2.66866 16.6096C2.7808 16.8822 2.94556 17.1301 3.15354 17.3391C3.36151 17.548 3.60863 17.714 3.88075 17.8274C4.15288 17.9408 4.44469 17.9995 4.7395 18H5.5V12.75C5.5 11.9544 5.81607 11.1913 6.37868 10.6287C6.94129 10.0661 7.70435 9.75005 8.5 9.75005H11.5C12.2956 9.75005 13.0587 10.0661 13.6213 10.6287C14.1839 11.1913 14.5 11.9544 14.5 12.75V18H15.2605C15.832 17.997 16.3555 17.781 16.75 17.427ZM19.75 15.75C19.75 16.9435 19.2759 18.0881 18.432 18.932C17.5881 19.7759 16.4435 20.25 15.25 20.25H4.75C3.55653 20.25 2.41193 19.7759 1.56802 18.932C0.724106 18.0881 0.25 16.9435 0.25 15.75V8.96555C0.250047 8.27654 0.408309 7.59675 0.712587 6.97857C1.01686 6.36039 1.45903 5.82034 2.005 5.40005L7.255 1.36205C8.04186 0.756313 9.00699 0.427856 10 0.427856C10.993 0.427856 11.9581 0.756313 12.745 1.36205L17.995 5.40005C18.5409 5.82073 18.983 6.36107 19.2873 6.97947C19.5915 7.59788 19.7498 8.27785 19.75 8.96705V15.75ZM12.25 12.75C12.25 12.5511 12.171 12.3604 12.0303 12.2197C11.8897 12.0791 11.6989 12 11.5 12H8.5C8.30109 12 8.11032 12.0791 7.96967 12.2197C7.82902 12.3604 7.75 12.5511 7.75 12.75V18H12.25V12.75Z" fill="#0F0B3E"/>
</svg>
