<svg width="16" height="20" viewBox="0 0 16 20" fill="none" xmlns="http://www.w3.org/2000/svg">
<path d="M13.6562 2.80402C10.5322 -0.268982 5.46717 -0.268982 2.34317 2.80402C1.60145 3.52865 1.01207 4.39425 0.60968 5.34993C0.207288 6.3056 0 7.33208 0 8.36902C0 9.40596 0.207288 10.4324 0.60968 11.3881C1.01207 12.3438 1.60145 13.2094 2.34317 13.934L7.99917 19.499L13.6562 13.934C14.3979 13.2094 14.9873 12.3438 15.3897 11.3881C15.792 10.4324 15.9993 9.40596 15.9993 8.36902C15.9993 7.33208 15.792 6.3056 15.3897 5.34993C14.9873 4.39425 14.3979 3.52865 13.6562 2.80402ZM7.99917 10.999C7.33117 10.999 6.70417 10.739 6.23117 10.267C5.76292 9.79777 5.49994 9.16193 5.49994 8.49902C5.49994 7.83611 5.76292 7.20027 6.23117 6.73102C6.70317 6.25902 7.33117 5.99902 7.99917 5.99902C8.66717 5.99902 9.29517 6.25902 9.76717 6.73102C10.2354 7.20027 10.4984 7.83611 10.4984 8.49902C10.4984 9.16193 10.2354 9.79777 9.76717 10.267C9.29517 10.739 8.66717 10.999 7.99917 10.999Z" fill="#0F0B3E"/>
</svg>
