<svg width="22" height="22" viewBox="0 0 22 22" fill="none" xmlns="http://www.w3.org/2000/svg">
<g clip-path="url(#clip0_883_4946)">
<path d="M1.27043 14.2616H11.111V16.0697H17.2625V14.2655H19.7064C19.8646 16.4158 19.8771 18.3304 17.6716 19.7897C17.6447 19.8075 17.623 19.8318 17.5633 19.885C17.8345 20.1103 18.1018 20.3329 18.3665 20.5529C18.0092 20.8945 17.7222 21.169 17.3932 21.4842C17.1029 21.1848 16.7889 20.8373 16.4467 20.5207C16.3462 20.4275 16.1683 20.3894 16.0224 20.3802C15.784 20.3657 15.5423 20.4045 15.302 20.4052C12.1067 20.4071 8.91145 20.4065 5.71554 20.4065C5.56251 20.4065 5.39897 20.436 5.25777 20.3933C4.83151 20.2653 4.56092 20.4629 4.3074 20.7684C4.09132 21.0284 3.84502 21.2629 3.61975 21.5007C3.31566 21.1808 3.04046 20.8918 2.73572 20.5707C2.93998 20.39 3.19941 20.1602 3.49102 19.9014C3.29004 19.7576 3.13964 19.6577 2.99712 19.5474C1.92919 18.7244 1.35187 17.6329 1.27634 16.2924C1.23891 15.6284 1.26977 14.9604 1.26977 14.2616H1.27043Z" fill="#0F0B3E"/>
<path d="M1.27359 9.28709C1.26834 9.16821 1.25914 9.06116 1.25914 8.9541C1.25848 7.21363 1.25651 5.47381 1.25914 3.73333C1.26177 1.82078 2.58913 0.486191 4.49905 0.499984C5.14007 0.504581 5.8008 0.491446 6.41686 0.636595C7.50975 0.894711 8.19806 1.65264 8.53039 2.72057C8.59476 2.92811 8.67817 3.0286 8.90607 3.09034C10.1921 3.43909 11.0945 4.641 11.1109 5.98216C11.1135 6.19824 11.1109 6.41432 11.1109 6.64879H5.02382C4.73353 5.11389 5.56764 3.52973 7.3114 3.03517C7.15377 2.35014 6.47926 1.77217 5.77124 1.74722C5.23597 1.72817 4.69872 1.7262 4.16344 1.74722C3.24066 1.78334 2.49849 2.63059 2.49455 3.64663C2.48798 5.39762 2.49258 7.14926 2.49258 8.90025C2.49258 9.01978 2.49258 9.13932 2.49258 9.28644H1.27228L1.27359 9.28709Z" fill="#0F0B3E"/>
<path d="M11.0936 13.0328C10.9648 13.0328 10.8683 13.0328 10.7718 13.0328C7.64415 13.0328 4.51589 13.0335 1.38828 13.0321C0.715079 13.0321 0.231029 12.7136 0.0609225 12.1698C-0.195223 11.3514 0.384717 10.5633 1.26875 10.5515C2.20926 10.539 3.14978 10.5482 4.09029 10.5482C6.29971 10.5482 8.50847 10.5482 10.7179 10.5482C10.8361 10.5482 10.9543 10.5482 11.0936 10.5482V13.0321V13.0328Z" fill="#0F0B3E"/>
<path d="M16.0247 14.8711H12.3644C12.3585 14.7555 12.3486 14.6504 12.3486 14.5453C12.3473 13.2771 12.3473 12.0082 12.3486 10.7399C12.3493 9.82242 12.8504 9.31801 13.764 9.31407C14.1029 9.31275 14.4418 9.30553 14.7807 9.31604C15.5419 9.34034 16.0391 9.85197 16.0411 10.6152C16.045 11.9386 16.0424 13.2613 16.0411 14.5848C16.0411 14.6708 16.0319 14.7562 16.0247 14.8711Z" fill="#0F0B3E"/>
<path d="M17.2852 13.0209V10.5481C17.8802 10.5481 18.4667 10.5461 19.0526 10.5488C19.358 10.5501 19.6699 10.5251 19.9688 10.5744C20.621 10.6821 21.0452 11.216 21.0183 11.8393C20.992 12.4508 20.5408 12.9756 19.9005 13.0091C19.0414 13.0544 18.1784 13.0202 17.2858 13.0202L17.2852 13.0209Z" fill="#0F0B3E"/>
</g>
<defs>
<clipPath id="clip0_883_4946">
<rect width="21.0171" height="21" fill="white" transform="translate(0 0.5)"/>
</clipPath>
</defs>
</svg>
