<svg width="22" height="22" viewBox="0 0 22 22" fill="none" xmlns="http://www.w3.org/2000/svg">
<path d="M1.83729 3.76618C1.61265 4.03034 1.38735 4.29385 1.16798 4.55142C0.737154 4.11664 0.36166 3.73851 0 3.37422C0.916996 2.4559 1.85244 1.5198 2.77602 0.59556C3.70026 1.52178 4.63505 2.45788 5.55072 3.37553C5.19302 3.73324 4.81489 4.11071 4.40382 4.52178C4.16601 4.2563 3.91041 3.97105 3.59025 3.61466V7.40452C5.31555 5.67659 7.08234 3.90847 8.8386 2.14958C8.37549 2.14958 7.85112 2.1173 7.33333 2.15946C6.88472 2.19569 6.57115 2.04813 6.27866 1.71743C5.92358 1.31624 5.51976 0.957879 5.08235 0.527707C5.24769 0.515191 5.33794 0.502674 5.42885 0.502674C9.82148 0.502016 14.2141 0.500039 18.6067 0.502674C20.0086 0.503333 21.0079 1.48028 21.0099 2.87356C21.0171 7.28924 21.0125 11.7043 21.0125 16.1199C21.0125 16.1812 21.0059 16.2431 20.9209 16.363C20.5231 15.9467 20.143 15.5112 19.72 15.1219C19.4453 14.8689 19.3347 14.6054 19.357 14.2339C19.3887 13.7141 19.365 13.1911 19.365 12.6746C17.6008 14.4408 15.8544 16.1884 14.112 17.9328H17.9091C17.554 17.643 17.2615 17.4045 16.9743 17.17C17.4453 16.7168 17.8287 16.3479 18.2016 15.9882C19.0837 16.8801 20.0152 17.8215 20.9401 18.7563C20.0441 19.6456 19.1047 20.5784 18.1752 21.5007C17.8261 21.145 17.4545 20.7668 17.0586 20.3637C17.2813 20.1674 17.5349 19.9434 17.7885 19.7194C17.7727 19.6805 17.7569 19.6417 17.7404 19.6035H17.3775C13.0507 19.6035 8.72398 19.6048 4.39723 19.6028C3.21278 19.6028 2.35903 19.0284 2.03294 17.9836C1.94335 17.6964 1.91765 17.3801 1.917 17.0765C1.90975 12.7708 1.91238 8.46513 1.91238 4.15946C1.91238 4.04352 1.91238 3.92692 1.91238 3.81098C1.88669 3.79582 1.861 3.78133 1.83531 3.76618H1.83729ZM3.56258 16.6832C8.40975 11.8354 13.249 6.99477 18.0935 2.14958C17.4032 2.14958 16.6937 2.14365 15.9842 2.15682C15.8933 2.1588 15.7879 2.24181 15.7154 2.31427C11.7167 6.309 7.72003 10.3064 3.72596 14.3064C3.65415 14.3788 3.57115 14.4842 3.56917 14.5751C3.55599 15.284 3.56192 15.9928 3.56192 16.6825L3.56258 16.6832ZM19.365 3.45788C14.5296 8.29187 9.69499 13.1259 4.86693 17.9526C5.52569 17.9526 6.22464 17.9585 6.92358 17.9454C7.01449 17.9434 7.11858 17.8571 7.19104 17.784C11.1963 13.7826 15.1996 9.7787 19.1996 5.77277C19.2721 5.7003 19.3557 5.5949 19.357 5.50399C19.3702 4.80571 19.3643 4.10676 19.3643 3.45788H19.365ZM19.365 8.08766C16.0758 11.3742 12.7833 14.6641 9.49144 17.9526C10.1588 17.9526 10.857 17.9585 11.556 17.9454C11.6462 17.9434 11.749 17.8531 11.8221 17.78C14.2846 15.3222 16.7444 12.8617 19.2016 10.3986C19.2734 10.3261 19.3557 10.2201 19.3577 10.1285C19.3709 9.42955 19.365 8.73061 19.365 8.087V8.08766ZM3.56258 12.0231C6.861 8.72599 10.1462 5.44141 13.4387 2.14958C12.7793 2.14958 12.1028 2.14365 11.4262 2.15617C11.334 2.15814 11.2266 2.23522 11.1548 2.30636C8.67589 4.78001 6.20026 7.2563 3.72727 9.73522C3.65547 9.80768 3.5718 9.91242 3.56983 10.004C3.55665 10.6819 3.56258 11.3597 3.56258 12.0231Z" fill="#0F0B3E"/>
</svg>
