<svg width="24" height="25" viewBox="0 0 24 25" fill="none" xmlns="http://www.w3.org/2000/svg">
<g clip-path="url(#clip0_883_4965)">
<path fill-rule="evenodd" clip-rule="evenodd" d="M9.01682 2.1C6.63922 2.1 4.79922 4.0248 4.79922 6.4632V6.9H14.3992V6.3176C14.3992 3.012 17.012 0.5 20.2904 0.5V2.1C17.8664 2.1 15.9992 3.924 15.9992 6.3176V16.5H14.3992V14.9H4.79922V19.7H3.19922V6.4632C3.19922 3.2008 5.69522 0.5 9.01682 0.5V2.1ZM4.79922 13.3H14.3992V8.5H4.79922V13.3Z" fill="#0F0B3E"/>
<path d="M11.904 22.0072C10.472 22.8136 8.9008 23.7 6.328 23.7C3.9552 23.7 2.1456 22.4808 1 21.1912L2.2 20.1288C3.1344 21.1848 4.5392 22.1 6.328 22.1C8.4704 22.1 9.7328 21.3928 11.1344 20.604L11.1504 20.5928C12.5824 19.7864 14.1536 18.9 16.7264 18.9C19.176 18.9 21.3408 20.212 22.8896 21.4152L21.9104 22.6792C20.4336 21.5336 18.6272 20.5 16.7264 20.5C14.584 20.5 13.3216 21.2072 11.92 21.996L11.904 22.0072Z" fill="#0F0B3E"/>
</g>
<defs>
<clipPath id="clip0_883_4965">
<rect width="24" height="24" fill="white" transform="translate(0 0.5)"/>
</clipPath>
</defs>
</svg>
