<svg width="22" height="23" viewBox="0 0 22 23" fill="none" xmlns="http://www.w3.org/2000/svg">
<path d="M11.6152 22.7417C11.7012 22.638 11.7692 22.5047 11.8193 22.3418C11.8695 22.1789 11.9375 21.9049 12.0234 21.5198C12.2383 20.557 12.4889 19.5647 12.7754 18.5427C13.0618 17.5208 13.2695 16.8765 13.3984 16.6099C13.5273 16.3285 13.7171 16.0285 13.9678 15.7101C14.2184 15.3916 14.5228 15.0473 14.8809 14.677C15.11 14.4252 15.3285 14.2179 15.5361 14.0549C15.7438 13.892 16.0339 13.6921 16.4062 13.4551C16.6211 13.3218 16.7894 13.1922 16.9111 13.0663C17.0329 12.9404 17.1224 12.8108 17.1797 12.6775L17.2656 12.4998V0.902588L17.1582 0.68042C17.1296 0.621175 17.0866 0.554525 17.0293 0.480469C16.972 0.406413 16.9219 0.347168 16.8789 0.302734L16.707 0.125H3.53711L3.36523 0.280518C3.13607 0.487874 2.94271 0.713745 2.78516 0.95813C2.6276 1.20251 2.4987 1.49504 2.39844 1.83569C2.36979 1.93937 2.24088 2.39111 2.01172 3.19092C1.76823 4.00553 1.514 4.8831 1.24902 5.82361C0.984049 6.76412 0.736979 7.61947 0.507812 8.38965C0.292969 9.17464 0.178385 9.58195 0.164062 9.61157C0.135416 9.74487 0.110352 9.89299 0.0888672 10.0559C0.0673828 10.2188 0.0566406 10.3818 0.0566406 10.5447C0.0566406 11.3149 0.275064 12.0036 0.711914 12.6108C1.14876 13.2181 1.71094 13.6328 2.39844 13.855H2.41992C2.53451 13.8994 2.69564 13.9253 2.90332 13.9327C3.111 13.9401 3.70182 13.9513 4.67578 13.9661C4.6901 13.9661 4.70443 13.9661 4.71875 13.9661C4.73307 13.9661 4.7474 13.9661 4.76172 13.9661C5.10547 13.9661 5.44564 13.9661 5.78223 13.9661C6.11882 13.9661 6.45182 13.9735 6.78125 13.9883H6.69531C6.69531 13.9883 6.68457 14.0253 6.66309 14.0994C6.6416 14.1734 6.61654 14.2549 6.58789 14.3438C6.41602 15.0103 6.28711 15.7841 6.20117 16.6654C6.11523 17.5467 6.09375 18.3057 6.13672 18.9426C6.19401 19.8757 6.34798 20.6496 6.59863 21.2643C6.84928 21.8789 7.20378 22.364 7.66211 22.7195L7.87695 22.875H11.5508L11.6152 22.7417ZM9.48828 21.342C9.35938 21.2976 9.23763 21.2421 9.12305 21.1754C9.00846 21.1088 8.90104 21.0384 8.80078 20.9644C8.47135 20.6681 8.27083 20.0238 8.19922 19.0315C8.1276 18.0391 8.19922 16.9283 8.41406 15.699C8.48568 15.2546 8.57161 14.8658 8.67188 14.5326C8.77214 14.1993 8.95833 13.6624 9.23047 12.9219C9.34505 12.6405 9.43815 12.3961 9.50977 12.1887C9.58138 11.9814 9.61719 11.8777 9.61719 11.8777C9.61719 11.8629 9.29492 11.8518 8.65039 11.8444C8.00586 11.837 7.22526 11.8333 6.30859 11.8333C4.71875 11.8333 3.7627 11.8295 3.44043 11.8221C3.11816 11.8147 2.92122 11.7962 2.84961 11.7666C2.73503 11.7074 2.61686 11.6185 2.49512 11.5C2.37337 11.3815 2.28385 11.2556 2.22656 11.1223C2.18359 11.0334 2.15495 10.9557 2.14062 10.889C2.1263 10.8224 2.11914 10.715 2.11914 10.5669C2.11914 10.404 2.16927 10.1374 2.26953 9.76709C2.36979 9.39681 2.69922 8.24154 3.25781 6.30127C3.55859 5.22005 3.82715 4.28324 4.06348 3.49084C4.2998 2.69845 4.42513 2.28003 4.43945 2.2356C4.51107 2.05786 4.65072 1.90975 4.8584 1.79126C5.06608 1.67277 5.32747 1.59871 5.64258 1.56909C5.72852 1.55428 6.21908 1.54317 7.11426 1.53577C8.00944 1.52836 9.04427 1.52466 10.2188 1.52466H14.4512V3.4353L14.7305 2.92432L15.1172 2.2356L15.2246 2.03564V6.87891V11.7L14.709 12.0776C14.0931 12.4924 13.4808 13.0515 12.8721 13.755C12.2633 14.4585 11.8158 15.1213 11.5293 15.7434C11.3574 16.1137 11.1211 16.8357 10.8203 17.9095C10.5195 18.9834 10.2546 20.0387 10.0254 21.0754C9.98242 21.2532 9.95378 21.3569 9.93945 21.3865C9.92513 21.4161 9.88932 21.4309 9.83203 21.4309C9.80339 21.4309 9.75684 21.4235 9.69238 21.4087C9.62793 21.3939 9.5599 21.3717 9.48828 21.342ZM21.0039 12.6997C21.0898 12.6405 21.165 12.5738 21.2295 12.4998C21.2939 12.4257 21.3477 12.3442 21.3906 12.2554L21.4766 12.0554V0.813721L21.3691 0.591553C21.3405 0.532308 21.3011 0.473063 21.251 0.413818C21.2008 0.354574 21.1543 0.302734 21.1113 0.258301L20.9395 0.147217L19.9727 0.125C19.5286 0.125 19.2493 0.128703 19.1348 0.136108C19.0202 0.143514 18.9128 0.169434 18.8125 0.213867C18.6693 0.258301 18.526 0.354574 18.3828 0.502686C18.2396 0.650798 18.1322 0.806315 18.0605 0.969238C17.946 1.22103 17.8779 1.55058 17.8564 1.95789C17.835 2.36519 17.8242 3.86483 17.8242 6.45679C17.8242 8.73771 17.8278 10.1077 17.835 10.5669C17.8421 11.026 17.8672 11.3297 17.9102 11.4778C17.9674 11.7444 18.0641 11.974 18.2002 12.1665C18.3363 12.359 18.4974 12.5072 18.6836 12.6108L18.877 12.7219L19.8867 12.7441C20.3164 12.7441 20.5993 12.7404 20.7354 12.733C20.8714 12.7256 20.9609 12.7145 21.0039 12.6997Z" fill="#9F9F9F"/>
</svg>
