<svg width="307" height="272" viewBox="0 0 307 272" fill="none" xmlns="http://www.w3.org/2000/svg">
<path d="M141.939 222.286V210.08V173.994C141.939 172.661 140.859 171.58 139.526 171.58H3.29639C1.96341 171.58 0.882812 172.661 0.882812 173.994V196.933" stroke="#A6A9AD" stroke-width="1.44814" stroke-linecap="round"/>
<path d="M73.5156 185.313H13.5139" stroke="#CECFD2" stroke-width="2.41357" stroke-linecap="round"/>
<path d="M98.2969 197.99L22.5053 197.989" stroke="#CECFD2" stroke-width="2.41357" stroke-linecap="round"/>
<path d="M110.355 210.666L49.7276 210.666" stroke="#CECFD2" stroke-width="2.41357" stroke-linecap="round"/>
<rect x="108.258" y="178.975" width="22.1059" height="22.1837" rx="2.41357" fill="#D9D9D9"/>
<path d="M261.935 26.7859V49.7252C261.935 51.0582 260.855 52.1388 259.522 52.1388H123.292C121.959 52.1388 120.879 51.0582 120.879 49.7252V3.84668C120.879 2.5137 121.96 1.43311 123.292 1.43311H137.594" stroke="#A6A9AD" stroke-width="1.44814" stroke-linecap="round"/>
<path d="M246.504 15.166H148.116" stroke="#CECFD2" stroke-width="2.41357" stroke-linecap="round"/>
<path d="M246.504 27.8425L193.906 27.8425" stroke="#CECFD2" stroke-width="2.41357" stroke-linecap="round"/>
<path d="M246.504 40.5187L214.327 40.5185" stroke="#CECFD2" stroke-width="2.41357" stroke-linecap="round"/>
<rect width="30.9942" height="14.8772" transform="matrix(0.705863 0.708348 -0.705863 0.708348 209.695 163.472)" fill="#A6A9AD"/>
<rect width="8.67838" height="14.8772" transform="matrix(0.705863 0.708348 -0.705863 0.708348 209.695 163.472)" fill="#74767C"/>
<path d="M224.764 174.694C225.14 174.317 225.75 174.317 226.127 174.694L304.104 252.947C305.61 254.457 305.61 256.907 304.104 258.417L293.804 268.754C292.299 270.265 289.858 270.265 288.352 268.754L210.375 190.502C209.998 190.124 209.998 189.512 210.375 189.134L224.764 174.694Z" fill="#74767C"/>
<path d="M223.889 180.842C224.265 180.464 224.875 180.464 225.252 180.842L296.767 252.608C297.975 253.821 297.975 255.787 296.767 256.999C295.558 258.212 293.599 258.212 292.391 256.999L220.876 185.233C220.5 184.855 220.5 184.243 220.876 183.865L223.889 180.842Z" fill="white"/>
<path fill-rule="evenodd" clip-rule="evenodd" d="M208.372 171.815C175.748 204.553 122.856 204.553 90.2323 171.815C82.1236 163.677 76.0304 154.283 71.9526 144.258H89.6986C92.7679 150.061 96.738 155.51 101.609 160.398C127.949 186.831 170.655 186.831 196.995 160.398C223.336 133.965 223.336 91.1087 196.995 64.6756C170.655 38.2426 127.949 38.2426 101.609 64.6756C95.6805 70.6247 91.0865 77.4057 87.8267 84.6442H70.5039C74.5233 73.1834 81.0994 62.4242 90.2323 53.2592C122.856 20.521 175.748 20.521 208.372 53.2592C240.995 85.9974 240.995 139.076 208.372 171.815Z" fill="#A6A9AD"/>
<path d="M103.561 84.6433H38.5269C37.1939 84.6433 36.1133 85.7239 36.1133 87.0569V141.843C36.1133 143.176 37.1939 144.257 38.5269 144.257H116.556M137.595 84.6433H199.536C200.869 84.6433 201.95 85.7239 201.95 87.0569V141.843C201.95 143.176 200.869 144.257 199.536 144.257H182.148" stroke="#A6A9AD" stroke-width="1.44814" stroke-linecap="round"/>
<path d="M164.82 97.0627L178.434 110.724M178.434 97.0627L164.82 110.724" stroke="#BD1313" stroke-width="2.41357" stroke-linecap="round"/>
<path d="M121.512 100.789H50.9692" stroke="#CECFD2" stroke-width="2.41357" stroke-linecap="round"/>
<path d="M140.074 115.692L50.9679 115.692" stroke="#CECFD2" stroke-width="2.41357" stroke-linecap="round"/>
<path d="M164.824 130.595L50.9661 130.595" stroke="#CECFD2" stroke-width="2.41357" stroke-linecap="round"/>
</svg>
