<svg width="69" height="30" viewBox="0 0 69 30" fill="none" xmlns="http://www.w3.org/2000/svg">
<g clip-path="url(#clip0_883_5557)">
<path d="M15 30.0165C23.2843 30.0165 30 23.3008 30 15.0165C30 6.73225 23.2843 0.0166016 15 0.0166016C6.71573 0.0166016 0 6.73225 0 15.0165C0 23.3008 6.71573 30.0165 15 30.0165Z" fill="#666666"/>
<path d="M0 45C8.28427 45 15 38.2843 15 30C15 21.7157 8.28427 15 0 15C-8.28427 15 -15 21.7157 -15 30C-15 38.2843 -8.28427 45 0 45Z" fill="white"/>
<path d="M30 45C38.2843 45 45 38.2843 45 30C45 21.7157 38.2843 15 30 15C21.7157 15 15 21.7157 15 30C15 38.2843 21.7157 45 30 45Z" fill="white"/>
<path d="M0 15C8.28427 15 15 8.28427 15 0C15 -8.28427 8.28427 -15 0 -15C-8.28427 -15 -15 -8.28427 -15 0C-15 8.28427 -8.28427 15 0 15Z" fill="white"/>
<path d="M30 15C38.2843 15 45 8.28427 45 0C45 -8.28427 38.2843 -15 30 -15C21.7157 -15 15 -8.28427 15 0C15 8.28427 21.7157 15 30 15Z" fill="white"/>
</g>
<g clip-path="url(#clip1_883_5557)">
<path d="M45 24.0097C49.9706 24.0097 54 19.9803 54 15.0097C54 10.0392 49.9706 6.00977 45 6.00977C40.0294 6.00977 36 10.0392 36 15.0097C36 19.9803 40.0294 24.0097 45 24.0097Z" fill="#AAAAAA"/>
<path d="M36 33C40.9706 33 45 28.9706 45 24C45 19.0294 40.9706 15 36 15C31.0294 15 27 19.0294 27 24C27 28.9706 31.0294 33 36 33Z" fill="white"/>
<path d="M54 33C58.9706 33 63 28.9706 63 24C63 19.0294 58.9706 15 54 15C49.0294 15 45 19.0294 45 24C45 28.9706 49.0294 33 54 33Z" fill="white"/>
<path d="M36 15C40.9706 15 45 10.9706 45 6C45 1.02944 40.9706 -3 36 -3C31.0294 -3 27 1.02944 27 6C27 10.9706 31.0294 15 36 15Z" fill="white"/>
<path d="M54 15C58.9706 15 63 10.9706 63 6C63 1.02944 58.9706 -3 54 -3C49.0294 -3 45 1.02944 45 6C45 10.9706 49.0294 15 54 15Z" fill="white"/>
</g>
<g clip-path="url(#clip2_883_5557)">
<path d="M64.2 19.2042C66.5196 19.2042 68.4 17.3238 68.4 15.0042C68.4 12.6846 66.5196 10.8042 64.2 10.8042C61.8804 10.8042 60 12.6846 60 15.0042C60 17.3238 61.8804 19.2042 64.2 19.2042Z" fill="#AAAAAA"/>
<path d="M60.0008 23.3995C62.3204 23.3995 64.2008 21.5191 64.2008 19.1995C64.2008 16.8799 62.3204 14.9995 60.0008 14.9995C57.6812 14.9995 55.8008 16.8799 55.8008 19.1995C55.8008 21.5191 57.6812 23.3995 60.0008 23.3995Z" fill="white"/>
<path d="M68.3992 23.3995C70.7188 23.3995 72.5992 21.5191 72.5992 19.1995C72.5992 16.8799 70.7188 14.9995 68.3992 14.9995C66.0796 14.9995 64.1992 16.8799 64.1992 19.1995C64.1992 21.5191 66.0796 23.3995 68.3992 23.3995Z" fill="white"/>
<path d="M60.0008 14.9996C62.3204 14.9996 64.2008 13.1192 64.2008 10.7996C64.2008 8.48001 62.3204 6.59961 60.0008 6.59961C57.6812 6.59961 55.8008 8.48001 55.8008 10.7996C55.8008 13.1192 57.6812 14.9996 60.0008 14.9996Z" fill="white"/>
<path d="M68.3992 14.9996C70.7188 14.9996 72.5992 13.1192 72.5992 10.7996C72.5992 8.48001 70.7188 6.59961 68.3992 6.59961C66.0796 6.59961 64.1992 8.48001 64.1992 10.7996C64.1992 13.1192 66.0796 14.9996 68.3992 14.9996Z" fill="white"/>
</g>
<defs>
<clipPath id="clip0_883_5557">
<rect width="30" height="30" fill="white"/>
</clipPath>
<clipPath id="clip1_883_5557">
<rect width="18" height="18" fill="white" transform="translate(36 6)"/>
</clipPath>
<clipPath id="clip2_883_5557">
<rect width="8.4" height="8.4" fill="white" transform="translate(60 10.7998)"/>
</clipPath>
</defs>
</svg>
