<svg width="41" height="40" viewBox="0 0 41 40" fill="none" xmlns="http://www.w3.org/2000/svg">
<circle cx="20.5" cy="20" r="19.5" stroke="black"/>
<path d="M26.429 16.0024H13.5833C12.985 16.0024 12.5 16.4875 12.5 17.0858V25.428C12.5 26.0263 12.985 26.5113 13.5833 26.5113H26.429C27.0273 26.5113 27.5123 26.0263 27.5123 25.428V17.0858C27.5123 16.4875 27.0273 16.0024 26.429 16.0024Z" stroke="black" stroke-width="1.08333" stroke-linecap="round" stroke-linejoin="round"/>
<path d="M23.0088 26.5113V14.5015C23.0088 14.1034 22.8507 13.7215 22.5692 13.44C22.2878 13.1584 21.906 13.0001 21.5079 13H18.5054C18.1072 13 17.7253 13.1582 17.4437 13.4398C17.1621 13.7214 17.0039 14.1033 17.0039 14.5015V26.5113" stroke="black" stroke-width="1.08333" stroke-linecap="round" stroke-linejoin="round"/>
</svg>
