<svg width="22" height="19" viewBox="0 0 22 19" fill="none" xmlns="http://www.w3.org/2000/svg">
<path d="M11.3984 4.5C10.1558 4.5 9.14844 5.50736 9.14844 6.75C9.14844 7.99264 10.1558 9 11.3984 9C12.6411 9 13.6484 7.99264 13.6484 6.75C13.6484 5.50736 12.6411 4.5 11.3984 4.5Z" fill="#999999"/>
<path fill-rule="evenodd" clip-rule="evenodd" d="M0.898438 1.875C0.898438 0.839466 1.7379 0 2.77344 0H20.0234C21.059 0 21.8984 0.839466 21.8984 1.875V11.625C21.8984 12.6605 21.059 13.5 20.0234 13.5H2.77344C1.7379 13.5 0.898438 12.6605 0.898438 11.625V1.875ZM7.64844 6.75C7.64844 4.67893 9.32737 3 11.3984 3C13.4695 3 15.1484 4.67893 15.1484 6.75C15.1484 8.82107 13.4695 10.5 11.3984 10.5C9.32737 10.5 7.64844 8.82107 7.64844 6.75ZM18.1484 6C17.7342 6 17.3984 6.33579 17.3984 6.75V6.7575C17.3984 7.17171 17.7342 7.5075 18.1484 7.5075H18.1559C18.5702 7.5075 18.9059 7.17171 18.9059 6.7575V6.75C18.9059 6.33579 18.5702 6 18.1559 6H18.1484ZM3.89844 6.75C3.89844 6.33579 4.23422 6 4.64844 6H4.65594C5.07015 6 5.40594 6.33579 5.40594 6.75V6.7575C5.40594 7.17171 5.07015 7.5075 4.65594 7.5075H4.64844C4.23422 7.5075 3.89844 7.17171 3.89844 6.7575V6.75Z" fill="#999999"/>
<path d="M1.64844 15C1.23422 15 0.898438 15.3358 0.898438 15.75C0.898438 16.1642 1.23422 16.5 1.64844 16.5C7.04848 16.5 12.2787 17.2222 17.2482 18.5749C18.4388 18.899 19.6484 18.0168 19.6484 16.7551V15.75C19.6484 15.3358 19.3127 15 18.8984 15H1.64844Z" fill="#999999"/>
</svg>
