<svg width="22" height="20" viewBox="0 0 22 20" fill="none" xmlns="http://www.w3.org/2000/svg">
<path d="M18.2057 1.70481C18.595 1.56325 18.7958 1.13293 18.6543 0.743653C18.5127 0.354377 18.0824 0.15356 17.6931 0.295115L5.19958 4.83822V0.999962C5.19958 0.585748 4.8638 0.249962 4.44958 0.249962H2.94958C2.53537 0.249962 2.19958 0.585748 2.19958 0.999962V5.92913L1.19312 6.29511C0.80384 6.43667 0.603023 6.86699 0.744578 7.25627C0.886132 7.64554 1.31646 7.84636 1.70573 7.7048L18.2057 1.70481Z" fill="#999999"/>
<path fill-rule="evenodd" clip-rule="evenodd" d="M2.21854 9.11449L17.1996 3.66684V7.08833L21.2057 8.54511C21.595 8.68667 21.7958 9.11699 21.6543 9.50627C21.5127 9.89554 21.0824 10.0964 20.6931 9.95481L20.1994 9.77528V18.25H20.9496C21.3638 18.25 21.6996 18.5857 21.6996 19C21.6996 19.4142 21.3638 19.75 20.9496 19.75H1.44958C1.03537 19.75 0.699585 19.4142 0.699585 19C0.699585 18.5857 1.03537 18.25 1.44958 18.25H2.19958V9.12129L2.21854 9.11449ZM17.1996 18.25V8.68443L18.6994 9.22983V18.25H17.1996ZM8.19958 12.25C7.78537 12.25 7.44958 12.5857 7.44958 13V17.5C7.44958 17.9142 7.78537 18.25 8.19958 18.25H11.1996C11.6138 18.25 11.9496 17.9142 11.9496 17.5V13C11.9496 12.5857 11.6138 12.25 11.1996 12.25H8.19958Z" fill="#999999"/>
</svg>
