<svg width="43" height="43" viewBox="0 0 43 43" fill="none" xmlns="http://www.w3.org/2000/svg">
<path d="M21.5 30.2344C25.2107 30.2344 28.2188 27.2263 28.2188 23.5156C28.2188 19.805 25.2107 16.7969 21.5 16.7969C17.7893 16.7969 14.7812 19.805 14.7812 23.5156C14.7812 27.2263 17.7893 30.2344 21.5 30.2344Z" stroke="#7065F0" stroke-width="2" stroke-linecap="round" stroke-linejoin="round"/>
<path d="M32.9219 19.4844C34.4869 19.4818 36.0309 19.8449 37.4307 20.5448C38.8305 21.2447 40.0474 22.262 40.9844 23.5156" stroke="#7065F0" stroke-width="2" stroke-linecap="round" stroke-linejoin="round"/>
<path d="M2.01562 23.5156C2.95255 22.262 4.16945 21.2447 5.56927 20.5448C6.96909 19.8449 8.51309 19.4818 10.0781 19.4844" stroke="#7065F0" stroke-width="2" stroke-linecap="round" stroke-linejoin="round"/>
<path d="M11.8242 36.2812C12.7091 34.469 14.0852 32.9417 15.7957 31.8734C17.5063 30.8051 19.4825 30.2386 21.4992 30.2386C23.516 30.2386 25.4922 30.8051 27.2027 31.8734C28.9132 32.9417 30.2893 34.469 31.1742 36.2812" stroke="#7065F0" stroke-width="2" stroke-linecap="round" stroke-linejoin="round"/>
<path d="M10.0797 19.4844C9.0595 19.4854 8.0601 19.1961 7.19825 18.6502C6.3364 18.1044 5.64769 17.3245 5.21259 16.4018C4.77749 15.4791 4.61398 14.4515 4.74115 13.4393C4.86832 12.4271 5.28093 11.472 5.93077 10.6856C6.5806 9.89915 7.44083 9.3139 8.41092 8.99821C9.38102 8.68251 10.4209 8.64941 11.4091 8.90278C12.3973 9.15615 13.293 9.68551 13.9916 10.429C14.6901 11.1725 15.1626 12.0995 15.3539 13.1016" stroke="#7065F0" stroke-width="2" stroke-linecap="round" stroke-linejoin="round"/>
<path d="M27.6484 13.1016C27.8397 12.0995 28.3122 11.1725 29.0108 10.429C29.7093 9.68551 30.605 9.15615 31.5932 8.90278C32.5814 8.64941 33.6213 8.68251 34.5914 8.99821C35.5615 9.3139 36.4217 9.89915 37.0716 10.6856C37.7214 11.472 38.134 12.4271 38.2612 13.4393C38.3884 14.4515 38.2248 15.4791 37.7897 16.4018C37.3546 17.3245 36.6659 18.1044 35.8041 18.6502C34.9422 19.1961 33.9428 19.4854 32.9227 19.4844" stroke="#7065F0" stroke-width="2" stroke-linecap="round" stroke-linejoin="round"/>
</svg>
