<svg width="44" height="44" viewBox="0 0 44 44" fill="none" xmlns="http://www.w3.org/2000/svg">
<path d="M41.1353 20.8155L36.9141 22.9175L31.4453 12.4585L35.7178 10.3223C36.0353 10.1605 36.4039 10.1307 36.7433 10.2396C37.0826 10.3484 37.3652 10.587 37.5293 10.9034L41.7334 18.9527C41.8186 19.1138 41.8708 19.2904 41.8868 19.4719C41.9029 19.6535 41.8824 19.8365 41.8267 20.0101C41.7709 20.1836 41.6811 20.3443 41.5623 20.4826C41.4436 20.6209 41.2984 20.7341 41.1353 20.8155V20.8155Z" stroke="white" stroke-width="2" stroke-linecap="round" stroke-linejoin="round"/>
<path d="M6.8365 22.7464L2.61531 20.6273C2.45278 20.5476 2.30792 20.4361 2.18936 20.2994C2.07079 20.1626 1.98094 20.0034 1.92513 19.8312C1.86933 19.659 1.84873 19.4774 1.86454 19.297C1.88035 19.1167 1.93225 18.9414 2.01717 18.7816L6.22127 10.7323C6.38573 10.4162 6.6671 10.1768 7.00546 10.065C7.34383 9.95331 7.71244 9.9781 8.03279 10.1341L12.3053 12.2704L6.8365 22.7464Z" stroke="white" stroke-width="2" stroke-linecap="round" stroke-linejoin="round"/>
<path d="M36.9141 22.9176L34.1797 26.1305L27.8906 32.4196C27.7192 32.5798 27.5115 32.6962 27.2853 32.7587C27.0591 32.8212 26.8212 32.828 26.5918 32.7784L16.6797 30.3004C16.4986 30.2499 16.3299 30.1627 16.1841 30.0441L6.83594 22.7467" stroke="white" stroke-width="2" stroke-linecap="round" stroke-linejoin="round"/>
<path d="M34.1803 26.1303L26.6608 20.6615L24.4732 22.3021C23.5255 23.0095 22.3746 23.3916 21.192 23.3916C20.0094 23.3916 18.8585 23.0095 17.9108 22.3021L16.9879 21.6014C16.8318 21.4828 16.7028 21.3324 16.6092 21.1601C16.5157 20.9878 16.4598 20.7977 16.4452 20.6022C16.4307 20.4067 16.4578 20.2103 16.5249 20.0261C16.5919 19.8419 16.6973 19.674 16.8341 19.5336L23.5333 12.8514C23.6592 12.7262 23.8085 12.6271 23.9727 12.5596C24.1369 12.4922 24.3128 12.4578 24.4903 12.4584H31.4459" stroke="white" stroke-width="2" stroke-linecap="round" stroke-linejoin="round"/>
<path d="M12.4062 12.2705L21.1733 9.70702C21.4849 9.61769 21.818 9.64192 22.1133 9.77538L28.0264 12.4585" stroke="white" stroke-width="2" stroke-linecap="round" stroke-linejoin="round"/>
<path d="M19.1406 36.3843L13.9966 35.0854C13.787 35.0381 13.5929 34.9381 13.4326 34.7949L9.57031 31.4453" stroke="white" stroke-width="2" stroke-linecap="round" stroke-linejoin="round"/>
</svg>
