<svg width="17" height="21" viewBox="0 0 17 21" fill="none" xmlns="http://www.w3.org/2000/svg">
<path fill-rule="evenodd" clip-rule="evenodd" d="M8.03975 20.351C8.06995 20.3685 8.09369 20.3821 8.1105 20.3915L8.13843 20.4071C8.3613 20.5294 8.63776 20.5285 8.86084 20.4075L8.8895 20.3915C8.90631 20.3821 8.93005 20.3685 8.96025 20.351C9.02066 20.316 9.10697 20.265 9.2155 20.1982C9.43246 20.0646 9.73875 19.8676 10.1046 19.6091C10.8351 19.0931 11.8097 18.3274 12.7865 17.3273C14.7307 15.3368 16.75 12.3462 16.75 8.5C16.75 3.94365 13.0563 0.25 8.5 0.25C3.94365 0.25 0.25 3.94365 0.25 8.5C0.25 12.3462 2.26932 15.3368 4.21346 17.3273C5.19025 18.3274 6.16491 19.0931 6.89539 19.6091C7.26125 19.8676 7.56754 20.0646 7.7845 20.1982C7.89303 20.265 7.97934 20.316 8.03975 20.351ZM8.5 11.5C10.1569 11.5 11.5 10.1569 11.5 8.5C11.5 6.84315 10.1569 5.5 8.5 5.5C6.84315 5.5 5.5 6.84315 5.5 8.5C5.5 10.1569 6.84315 11.5 8.5 11.5Z" fill="#703BF7"/>
</svg>
