<svg width="18" height="18" viewBox="0 0 18 18" fill="none" xmlns="http://www.w3.org/2000/svg">
<path d="M8.11478 9.58128L6.89229 8.39792C6.73772 8.24568 6.54451 8.16956 6.31266 8.16956C6.0808 8.16956 5.88058 8.25261 5.71196 8.41869C5.5574 8.57093 5.4801 8.7647 5.4801 8.99999C5.4801 9.23528 5.5574 9.42904 5.71196 9.58128L7.52461 11.3667C7.69322 11.5328 7.88995 11.6158 8.11478 11.6158C8.3396 11.6158 8.53632 11.5328 8.70493 11.3667L12.2881 7.83739C12.4567 7.67131 12.5375 7.47755 12.5304 7.2561C12.5235 7.03465 12.4427 6.84088 12.2881 6.6748C12.1194 6.50872 11.9192 6.42221 11.6874 6.41529C11.4555 6.40837 11.2553 6.48795 11.0867 6.65403L8.11478 9.58128ZM5.75411 17.0966L4.53162 15.0621L2.21312 14.5639C2.00234 14.5223 1.83373 14.415 1.70726 14.242C1.5808 14.069 1.53162 13.8788 1.55972 13.6711L1.79158 11.3252L0.210776 9.53976C0.0702571 9.38752 0 9.20759 0 8.99999C0 8.79238 0.0702571 8.61246 0.210776 8.46021C0.35129 8.30796 1.79158 6.6748 1.79158 6.6748L1.55972 4.32885C1.53162 4.12124 1.5808 3.93094 1.70726 3.75793C1.83373 3.58493 2.00234 3.47766 2.21312 3.43614L4.53162 2.93789L5.75411 0.903354C5.86652 0.723422 6.02109 0.602321 6.21782 0.54004C6.41453 0.477758 6.61126 0.488134 6.80797 0.571181L9.00002 1.48464L11.1921 0.571181C11.3888 0.488134 11.5855 0.477758 11.7823 0.54004C11.9789 0.602321 12.1335 0.723422 12.2459 0.903354L13.4684 2.93789L15.7869 3.43614C15.9977 3.47766 16.1663 3.58493 16.2927 3.75793C16.4192 3.93094 16.4684 4.12124 16.4403 4.32885L16.2085 6.6748L17.7893 8.46021C17.9298 8.61246 18 8.79238 18 8.99999C18 9.20759 17.9298 9.38752 17.7893 9.53976L16.2085 11.3252L16.4403 13.6711C16.4684 13.8788 16.4192 14.069 16.2927 14.242C16.1663 14.415 15.9977 14.5223 15.7869 14.5639L13.4684 15.0621L12.2459 17.0966C12.1335 17.2765 11.9789 17.3977 11.7823 17.46C11.5855 17.5223 11.3888 17.5118 11.1921 17.4288L9.00002 16.5153L6.80797 17.4288C6.61126 17.5118 6.41453 17.5223 6.21782 17.46C6.02109 17.3977 5.86652 17.2765 5.75411 17.0966Z" fill="#7065F0"/>
</svg>
