<svg width="21" height="21" viewBox="0 0 21 21" fill="none" xmlns="http://www.w3.org/2000/svg">
<path d="M21 14.534C21 12.682 20.208 11.0159 18.9512 9.84383V8.20182L20.1579 9.22003C20.2501 9.29798 20.3669 9.34068 20.4875 9.34057C20.5623 9.34064 20.6361 9.32433 20.7038 9.29277C20.7716 9.26121 20.8316 9.21517 20.8797 9.15789C21.0618 8.94113 21.034 8.61738 20.8177 8.43471L11.7492 0.783044C11.1725 0.296149 10.3379 0.298169 9.76422 0.787551L6.14633 3.86855V1.96051C6.14633 1.11154 5.45705 0.420909 4.60974 0.420909C3.76242 0.420909 3.07315 1.11154 3.07315 1.96051V6.48581L0.180538 8.94963C-0.0350454 9.13305 -0.0613083 9.45706 0.122015 9.67281C0.223293 9.79234 0.367351 9.85372 0.512417 9.85372C0.629721 9.85372 0.747517 9.81363 0.843805 9.73145L2.04877 8.70511V18.524C2.04877 19.373 2.73804 20.0636 3.58536 20.0636H11.3677C12.3173 20.6226 13.4188 20.949 14.5975 20.949C15.9086 20.949 17.128 20.5507 18.1441 19.8706C18.2788 19.797 18.404 19.7091 18.5105 19.6002C20.0217 18.4257 21 16.5942 21 14.534ZM3.07315 18.524V7.83258L3.91698 7.11383C3.9223 7.10932 3.92429 7.10275 3.92939 7.09803C3.95686 7.07275 3.97638 7.04178 3.99781 7.01106C4.015 6.98635 4.03511 6.9641 4.04746 6.93727C4.06026 6.90974 4.06429 6.87923 4.07207 6.84929C4.0812 6.8138 4.09203 6.77972 4.09345 6.7432C4.09374 6.73608 4.09754 6.7301 4.09754 6.72295V1.96054C4.09754 1.67763 4.32736 1.44733 4.60974 1.44733C4.89209 1.44733 5.12194 1.67761 5.12194 1.96054V4.97811C5.12194 5.00313 5.1327 5.0246 5.13616 5.04866C5.14112 5.0844 5.14469 5.11916 5.1573 5.15356C5.17015 5.18857 5.19021 5.21797 5.21001 5.24889C5.2227 5.26897 5.22818 5.29178 5.244 5.31038C5.24853 5.31572 5.25507 5.31774 5.25977 5.32284C5.28497 5.35032 5.31579 5.3698 5.34639 5.39124C5.37121 5.40857 5.39357 5.42882 5.42055 5.44131C5.44746 5.45384 5.47727 5.45773 5.50645 5.46545C5.54259 5.47492 5.57736 5.48593 5.61458 5.48733C5.62146 5.48762 5.62722 5.49127 5.63415 5.49127C5.65837 5.49127 5.67912 5.4807 5.70247 5.47746C5.73907 5.47252 5.77466 5.46873 5.80985 5.45573C5.8443 5.44299 5.87318 5.42307 5.9037 5.40354C5.92397 5.39067 5.947 5.38505 5.96579 5.36899L10.4277 1.56935C10.6188 1.4062 10.8972 1.40597 11.0893 1.5681L17.9344 7.34382C17.9335 7.35682 17.9269 7.36791 17.9269 7.38117V9.06496C16.9554 8.46895 15.8179 8.11896 14.5976 8.11896C11.0673 8.11896 8.19519 10.9967 8.19519 14.534C8.19519 16.2877 8.90248 17.878 10.0446 19.0372H3.58533C3.30298 19.0372 3.07315 18.8069 3.07315 18.524ZM9.2195 14.534C9.2195 11.5628 11.6322 9.14536 14.5975 9.14536C17.5629 9.14536 19.9756 11.5628 19.9756 14.534C19.9756 17.5052 17.5629 19.9226 14.5975 19.9226C11.6322 19.9226 9.2195 17.5052 9.2195 14.534Z" fill="#7065F0"/>
<path d="M4.60938 9.65845H8.19475V13.2509H4.60938V9.65845ZM16.71 13.9065H15.1094V13.5901L17.0474 11.891C17.2602 11.7043 17.2817 11.3803 17.0954 11.1668C16.9086 10.9536 16.5857 10.9318 16.3726 11.1187L14.5972 12.6752L12.8218 11.1187C12.6087 10.9323 12.2851 10.954 12.099 11.1668C11.9127 11.3803 11.9342 11.7043 12.147 11.891L14.085 13.5901V13.9065H12.6125C12.3296 13.9065 12.1003 14.1363 12.1003 14.4197C12.1003 14.7031 12.3296 14.9329 12.6125 14.9329H14.085V15.4461H13.1247C12.8418 15.4461 12.6125 15.6759 12.6125 15.9593C12.6125 16.2427 12.8418 16.4725 13.1247 16.4725H14.085V17.5631C14.085 17.8465 14.3144 18.0763 14.5972 18.0763C14.8801 18.0763 15.1094 17.8465 15.1094 17.5631V16.4725H16.1979C16.4807 16.4725 16.7101 16.2427 16.7101 15.9593C16.7101 15.6759 16.4807 15.4461 16.1979 15.4461H15.1094V14.9329H16.71C16.9929 14.9329 17.2222 14.7031 17.2222 14.4197C17.2222 14.1363 16.9928 13.9065 16.71 13.9065Z" fill="#7065F0"/>
</svg>
