<svg width="18" height="14" viewBox="0 0 18 14" fill="none" xmlns="http://www.w3.org/2000/svg">
<path d="M5.72656 8.13404C5.72656 8.54256 5.81126 8.94708 5.97582 9.32451C6.14039 9.70193 6.38159 10.0449 6.68566 10.3337C6.98974 10.6226 7.35072 10.8517 7.74801 11.0081C8.1453 11.1644 8.57111 11.2449 9.00114 11.2449C9.43116 11.2449 9.85697 11.1644 10.2543 11.0081C10.6516 10.8517 11.0125 10.6226 11.3166 10.3337C11.6207 10.0449 11.8619 9.70193 12.0264 9.32451C12.191 8.94708 12.2757 8.54256 12.2757 8.13404C12.2757 7.30899 11.9307 6.51774 11.3166 5.93434C10.7025 5.35094 9.86961 5.02319 9.00114 5.02319C8.13266 5.02319 7.29976 5.35094 6.68566 5.93434C6.07156 6.51774 5.72656 7.30899 5.72656 8.13404Z" fill="#7065F0" fill-opacity="0.5"/>
<path d="M13.3672 3.98628C13.3672 4.06799 13.3841 4.14891 13.417 4.22441C13.4499 4.2999 13.4982 4.3685 13.559 4.42629C13.6198 4.48407 13.692 4.52991 13.7714 4.56118C13.8509 4.59246 13.9361 4.60855 14.0221 4.60855C14.1081 4.60855 14.1933 4.59246 14.2727 4.56118C14.3522 4.52991 14.4244 4.48407 14.4852 4.42629C14.546 4.3685 14.5943 4.2999 14.6272 4.22441C14.6601 4.14891 14.677 4.06799 14.677 3.98628C14.677 3.90457 14.6601 3.82365 14.6272 3.74816C14.5943 3.67266 14.546 3.60406 14.4852 3.54628C14.4244 3.48849 14.3522 3.44266 14.2727 3.41138C14.1933 3.38011 14.1081 3.36401 14.0221 3.36401C13.9361 3.36401 13.8509 3.38011 13.7714 3.41138C13.692 3.44266 13.6198 3.48849 13.559 3.54628C13.4982 3.60406 13.4499 3.67266 13.417 3.74816C13.3841 3.82365 13.3672 3.90457 13.3672 3.98628Z" fill="#7065F0" fill-opacity="0.5"/>
<path d="M16.4241 2.53456H16.1643C15.9723 2.53456 15.7826 2.49445 15.6087 2.41708C15.4348 2.33971 15.281 2.22696 15.1581 2.08682L13.7605 0.493621C13.6376 0.353487 13.4838 0.240742 13.3099 0.163371C13.136 0.0860007 12.9463 0.0458964 12.7543 0.0458984H5.24915C5.05713 0.0458995 4.86746 0.086009 4.69356 0.163386C4.51967 0.240764 4.36581 0.353517 4.24289 0.493659L2.84546 2.0868C2.72254 2.22694 2.56868 2.3397 2.39478 2.41707C2.22089 2.49445 2.03122 2.53456 1.8392 2.53456H1.57936C0.855965 2.53456 0.269531 3.09168 0.269531 3.7789V12.0745C0.269531 12.7617 0.855965 13.3188 1.57936 13.3188H16.4241C17.1475 13.3188 17.7339 12.7617 17.7339 12.0745V3.7789C17.7339 3.09168 17.1475 2.53456 16.4241 2.53456ZM16.8607 12.0745C16.8607 12.3032 16.6648 12.4893 16.4241 12.4893H1.57934C1.33861 12.4893 1.14273 12.3032 1.14273 12.0745V3.7789C1.14273 3.55021 1.33859 3.36412 1.57934 3.36412H1.83918C2.489 3.36412 3.10029 3.09213 3.51627 2.61785L4.91371 1.02469C4.95463 0.977917 5.00591 0.940294 5.06389 0.914497C5.12186 0.8887 5.18511 0.875365 5.24913 0.87544H12.7543C12.8183 0.875365 12.8815 0.8887 12.9395 0.914497C12.9975 0.940294 13.0488 0.977917 13.0897 1.02469L14.4872 2.61791C14.9032 3.09213 15.5145 3.36412 16.1643 3.36412H16.424C16.6648 3.36412 16.8607 3.55019 16.8607 3.7789V12.0745H16.8607Z" fill="#7065F0"/>
<path d="M12.4936 2.53467H5.94442C5.70331 2.53467 5.50781 2.72039 5.50781 2.94945C5.50781 3.17851 5.70331 3.36423 5.94442 3.36423H12.4935C12.7347 3.36423 12.9302 3.17851 12.9302 2.94945C12.9302 2.72039 12.7347 2.53467 12.4936 2.53467Z" fill="#7065F0"/>
</svg>
