<svg width="18" height="17" viewBox="0 0 18 17" fill="none" xmlns="http://www.w3.org/2000/svg">
<path d="M12.1174 6.36536L7.88206 3.38862C7.80228 3.3325 7.70954 3.30028 7.61374 3.29541C7.51795 3.29054 7.4227 3.31319 7.33817 3.36095C7.25363 3.40871 7.18299 3.47979 7.13379 3.56658C7.08459 3.65337 7.05868 3.75262 7.05882 3.85373V9.80722C7.05868 9.90833 7.08459 10.0076 7.13379 10.0944C7.18299 10.1812 7.25363 10.2522 7.33817 10.3C7.4227 10.3478 7.51795 10.3704 7.61374 10.3655C7.70954 10.3607 7.80228 10.3285 7.88206 10.2723L12.1174 7.29559C12.1902 7.24468 12.2499 7.17556 12.2912 7.09441C12.3325 7.01325 12.3541 6.92258 12.3541 6.83048C12.3541 6.73837 12.3325 6.6477 12.2912 6.56654C12.2499 6.48539 12.1902 6.41627 12.1174 6.36536ZM8.11765 8.76443V4.89652L10.8688 6.83048L8.11765 8.76443ZM16.7647 0.318848H1.23529C0.907674 0.318848 0.593472 0.456057 0.361809 0.70029C0.130147 0.944523 0 1.27578 0 1.62117V12.0398C0 12.3852 0.130147 12.7164 0.361809 12.9607C0.593472 13.2049 0.907674 13.3421 1.23529 13.3421H16.7647C17.0923 13.3421 17.4065 13.2049 17.6382 12.9607C17.8699 12.7164 18 12.3852 18 12.0398V1.62117C18 1.27578 17.8699 0.944523 17.6382 0.70029C17.4065 0.456057 17.0923 0.318848 16.7647 0.318848ZM16.9412 12.0398C16.9412 12.0891 16.9226 12.1364 16.8895 12.1713C16.8564 12.2062 16.8115 12.2258 16.7647 12.2258H1.23529C1.18849 12.2258 1.14361 12.2062 1.11051 12.1713C1.07742 12.1364 1.05882 12.0891 1.05882 12.0398V1.62117C1.05882 1.57183 1.07742 1.52451 1.11051 1.48962C1.14361 1.45473 1.18849 1.43513 1.23529 1.43513H16.7647C16.8115 1.43513 16.8564 1.45473 16.8895 1.48962C16.9226 1.52451 16.9412 1.57183 16.9412 1.62117V12.0398ZM18 15.7607C18 15.9087 17.9442 16.0507 17.8449 16.1554C17.7457 16.26 17.611 16.3188 17.4706 16.3188H0.529412C0.389003 16.3188 0.254345 16.26 0.155061 16.1554C0.0557771 16.0507 0 15.9087 0 15.7607C0 15.6127 0.0557771 15.4707 0.155061 15.366C0.254345 15.2614 0.389003 15.2026 0.529412 15.2026H17.4706C17.611 15.2026 17.7457 15.2614 17.8449 15.366C17.9442 15.4707 18 15.6127 18 15.7607Z" fill="#7065F0"/>
</svg>
