<svg width="18" height="19" viewBox="0 0 18 19" fill="none" xmlns="http://www.w3.org/2000/svg">
<path d="M17.2822 16.6609L15.4407 13.7855C17.0288 12.4634 17.4259 10.1301 16.2832 8.34546V8.34524C15.8673 7.6961 15.298 7.20533 14.6546 6.88115V1.68174C14.6546 0.930237 14.0432 0.318848 13.2917 0.318848H2.07774C1.32623 0.318848 0.714844 0.930237 0.714844 1.68174V17.1282C0.714844 17.8799 1.32623 18.4913 2.07774 18.4913H13.2917C14.0432 18.4913 14.6546 17.8799 14.6546 17.1282V14.8632L16.2353 17.3314L17.2822 16.6609ZM15.4989 8.84768C16.4592 10.3484 16.0207 12.3507 14.5204 13.3113C14.3699 13.4076 14.2125 13.4874 14.0517 13.5569L14.0105 13.574C13.6533 13.7219 13.283 13.8003 12.915 13.8165C12.9042 13.817 12.8934 13.8171 12.8826 13.8175C12.7082 13.8235 12.5336 13.8153 12.3606 13.793C12.3448 13.7909 12.3289 13.7873 12.3131 13.785C12.1512 13.7617 11.9914 13.7262 11.835 13.6787C11.8228 13.675 11.8101 13.6725 11.7979 13.6687C11.638 13.6179 11.4829 13.5527 11.3325 13.4776C11.3131 13.4679 11.2934 13.4587 11.2742 13.4486C11.1265 13.371 10.9851 13.282 10.8512 13.1825C10.8343 13.1699 10.8178 13.1567 10.8011 13.1438C10.6673 13.0402 10.54 12.9265 10.4223 12.8008C10.4106 12.7882 10.3999 12.7745 10.3883 12.7617C10.2683 12.6294 10.1559 12.4878 10.0568 12.333V12.3327C10.0466 12.3167 10.0386 12.2998 10.0286 12.2836C9.98106 12.2064 9.93501 12.1286 9.89468 12.049C9.88489 12.0298 9.87761 12.0097 9.86827 11.9904C9.83014 11.9113 9.79317 11.8319 9.76202 11.7511C9.75983 11.7454 9.75839 11.7395 9.75624 11.7339C9.30458 10.5412 9.60273 9.18101 10.5122 8.28699C10.5162 8.28312 10.5196 8.27878 10.5236 8.2749C10.5876 8.21267 10.6563 8.15414 10.7262 8.09669C10.7407 8.0848 10.7537 8.07151 10.7685 8.05989C10.854 7.99202 10.9429 7.92852 11.0349 7.86961C11.1584 7.7905 11.2861 7.7234 11.4156 7.66307C11.4642 7.64054 11.5143 7.62267 11.5638 7.60263C11.6454 7.56949 11.7274 7.53803 11.8105 7.51197C11.8706 7.49318 11.9313 7.47746 11.9923 7.46225C12.0674 7.44338 12.1432 7.42725 12.2195 7.41392C12.2828 7.40289 12.3462 7.3928 12.41 7.38554C12.4878 7.37675 12.5656 7.37243 12.6435 7.36931C12.7058 7.36679 12.768 7.36285 12.8304 7.36391C12.8899 7.36499 12.9491 7.37051 13.0085 7.37485C13.0788 7.37994 13.1492 7.38417 13.2193 7.39388C13.2788 7.40212 13.3374 7.41529 13.3964 7.42681C13.466 7.44042 13.5357 7.45291 13.6046 7.47115C13.6601 7.48583 13.7141 7.50538 13.7688 7.52298C13.8402 7.546 13.9118 7.56796 13.982 7.59612C14.5852 7.83779 15.1224 8.26027 15.4989 8.84768ZM2.07774 1.2505H13.2917C13.5296 1.2505 13.7229 1.44406 13.7229 1.68174V4.27951H1.6465V1.68174C1.6465 1.44406 1.83981 1.2505 2.07774 1.2505ZM13.7229 17.1282C13.7229 17.3661 13.5296 17.5597 13.2917 17.5597H2.07774C1.83981 17.5597 1.6465 17.3661 1.6465 17.1282V5.21116H13.7229V6.53881C13.7149 6.53693 13.7067 6.53622 13.6986 6.53441C13.6059 6.51337 13.512 6.49852 13.4181 6.4838C13.3792 6.47773 13.3405 6.4689 13.3015 6.46398C12.3667 6.34448 11.3869 6.53808 10.5327 7.08494C10.4143 7.16091 10.2997 7.24273 10.1895 7.33008C10.1702 7.34536 10.1532 7.36256 10.1343 7.3781C10.0446 7.45171 9.95664 7.52696 9.87393 7.60717C9.86895 7.61204 9.86466 7.61738 9.85972 7.62225C9.28683 8.18323 8.88724 8.89761 8.71168 9.69908C8.53437 10.5069 8.60008 11.3299 8.89189 12.0841L8.89196 12.0843C8.93606 12.1982 8.98689 12.3101 9.04131 12.4206C9.04904 12.4363 9.05488 12.4527 9.06283 12.4684C9.12658 12.5942 9.19659 12.7167 9.27259 12.8355C9.38112 13.005 9.50386 13.1614 9.63291 13.3112C9.65728 13.3394 9.6811 13.3679 9.70612 13.3953C9.83705 13.5394 9.97602 13.6742 10.1246 13.7975C10.1388 13.8092 10.1537 13.8195 10.168 13.831C10.3128 13.9477 10.4655 14.0545 10.6248 14.1506C10.6423 14.1611 10.6591 14.1727 10.6768 14.1831C10.8418 14.2793 11.0138 14.3636 11.1919 14.4366C11.2224 14.4492 11.2533 14.4598 11.2841 14.4716C11.4428 14.5323 11.6055 14.5844 11.7729 14.6259C11.7976 14.6321 11.8216 14.6401 11.8464 14.6458C11.86 14.649 11.8729 14.6537 11.8865 14.6567C12.063 14.6954 12.2402 14.7189 12.4174 14.7347C12.4487 14.7374 12.4802 14.7378 12.5117 14.7398C12.6031 14.7459 12.6946 14.7547 12.7858 14.7547C12.8521 14.7547 12.9172 14.7438 12.9831 14.7407C13.0476 14.7376 13.112 14.733 13.1762 14.7269C13.3282 14.7124 13.4781 14.6886 13.6274 14.6573C13.6592 14.6506 13.6913 14.65 13.723 14.6426V17.1282H13.7229Z" fill="#7065F0"/>
<path d="M2.42188 1.86182H4.28518V3.72512H2.42188V1.86182ZM2.42188 6.5439H7.6838V8.02747H2.42188V6.5439ZM2.42188 10.7475H7.6838V12.2311H2.42188V10.7475ZM2.42188 14.9718H3.86423V16.4141H2.42188V14.9718ZM5.39804 14.9718H6.84039V16.4141H5.39804V14.9718ZM8.37416 14.9718H9.81653V16.4141H8.37416V14.9718ZM11.3503 14.9446H12.7927V16.3869H11.3503V14.9446Z" fill="#7065F0" fill-opacity="0.5"/>
</svg>
