<svg width="21" height="22" viewBox="0 0 21 22" fill="none" xmlns="http://www.w3.org/2000/svg">
<path d="M17.4643 17.9645H3.53571C3.23983 17.9645 3 18.1928 3 18.4744C3 18.756 3.23983 18.9843 3.53571 18.9843H17.4643C17.7602 18.9843 18 18.756 18 18.4744C18 18.1928 17.7602 17.9645 17.4643 17.9645ZM15.8358 7.69961C16.2542 7.30135 16.2542 6.65565 15.8358 6.25744C15.4174 5.85917 14.739 5.85917 14.3206 6.25744L5.9868 14.1894L4.85038 16.7132L7.50203 15.6316L15.8358 7.69961Z" fill="#7065F0" fill-opacity="0.5"/>
<path d="M19.425 0.948975H1.575C0.7065 0.948975 0 1.65686 0 2.52707V20.4121C0 21.2823 0.7065 21.9902 1.575 21.9902H19.425C20.2935 21.9902 21 21.2823 21 20.4121V2.52707C21 1.65686 20.2935 0.948975 19.425 0.948975ZM19.95 20.4121C19.95 20.7021 19.7147 20.9382 19.425 20.9382H1.575C1.28558 20.9382 1.05 20.7021 1.05 20.4121V2.52707C1.05 2.23708 1.28558 2.00104 1.575 2.00104H19.425C19.7147 2.00104 19.95 2.23708 19.95 2.52707V20.4121Z" fill="#7065F0"/>
<path d="M13.7143 9.96659L12 8.24894L13.2857 6.96069L15 8.67834L13.7143 9.96659Z" fill="#7065F0"/>
</svg>
