<svg width="20" height="17" viewBox="0 0 20 17" fill="none" xmlns="http://www.w3.org/2000/svg">
<path opacity="0.2" d="M18.5598 5.328C18.5598 11.0102 9.62366 15.8314 9.62366 15.8314C9.62366 15.8314 0.6875 11.0102 0.6875 5.328C0.6875 4.095 1.17635 2.91249 2.0465 2.04063C2.91666 1.16876 4.09684 0.678955 5.32743 0.678955C7.26847 0.678955 8.93111 1.73877 9.62366 3.43394C10.3162 1.73877 11.9789 0.678955 13.9199 0.678955C15.1505 0.678955 16.3307 1.16876 17.2008 2.04063C18.071 2.91249 18.5598 4.095 18.5598 5.328Z" fill="#7065F0"/>
<path d="M13.9198 -0.00976562C12.1454 -0.00976562 10.5919 0.754744 9.62356 2.04701C8.65519 0.754744 7.10167 -0.00976562 5.32733 -0.00976562C3.91492 -0.00817054 2.56082 0.554715 1.5621 1.5554C0.563374 2.55608 0.00159196 3.91285 0 5.32803C0 11.3546 8.91812 16.2326 9.2979 16.4341C9.398 16.488 9.50989 16.5163 9.62356 16.5163C9.73722 16.5163 9.84911 16.488 9.94921 16.4341C10.329 16.2326 19.2471 11.3546 19.2471 5.32803C19.2455 3.91285 18.6837 2.55608 17.685 1.5554C16.6863 0.554715 15.3322 -0.00817054 13.9198 -0.00976562ZM9.62356 15.0394C8.05457 14.1233 1.37479 9.95038 1.37479 5.32803C1.37616 4.27811 1.79302 3.27159 2.53397 2.52918C3.27492 1.78678 4.27947 1.3691 5.32733 1.36773C6.99856 1.36773 8.40171 2.25966 8.98772 3.69225C9.03951 3.81858 9.1276 3.92662 9.24082 4.00266C9.35404 4.0787 9.48726 4.1193 9.62356 4.1193C9.75986 4.1193 9.89308 4.0787 10.0063 4.00266C10.1195 3.92662 10.2076 3.81858 10.2594 3.69225C10.8454 2.25707 12.2486 1.36773 13.9198 1.36773C14.9676 1.3691 15.9722 1.78678 16.7131 2.52918C17.4541 3.27159 17.871 4.27811 17.8723 5.32803C17.8723 9.9435 11.1908 14.1225 9.62356 15.0394Z" fill="#7065F0"/>
</svg>
