<svg width="20" height="19" viewBox="0 0 20 19" fill="none" xmlns="http://www.w3.org/2000/svg">
<path d="M19.0476 11.1497V2.0041C19.0476 1.18387 18.4068 0.516357 17.6191 0.516357H2.38097C1.5932 0.516357 0.952388 1.18387 0.952388 2.0041V11.1497C0.399301 11.3499 0 11.8814 0 12.5108V12.6014C0 13.4011 0.640812 14.0517 1.42858 14.0517H2.21708L1.15981 17.629C1.0717 17.9274 1.1261 18.2422 1.30954 18.4922C1.49276 18.7422 1.77386 18.8857 2.08102 18.8857C2.44722 18.8857 2.77694 18.6789 2.9411 18.3461L5.05629 14.0517H15.1205L17.2359 18.3464C17.3998 18.6789 17.7295 18.8857 18.0959 18.8857C18.4029 18.8857 18.684 18.7424 18.8672 18.4922C19.0507 18.2423 19.1051 17.9276 19.0169 17.6288L17.9597 14.0517H18.5714C19.3592 14.0517 20 13.4011 20 12.6014V12.5108C20 11.8814 19.6007 11.3498 19.0476 11.1497ZM1.9048 2.0041C1.9048 1.71685 2.11849 1.48317 2.38099 1.48317H17.6191C17.8816 1.48317 18.0953 1.71685 18.0953 2.0041V11.0606H1.9048V2.0041ZM2.0894 17.9134C2.08863 17.915 2.08745 17.9164 2.08597 17.9174C2.08449 17.9183 2.08278 17.9188 2.08102 17.9189L2.07219 17.9068L3.21152 14.0516H3.99137L2.0894 17.9134ZM18.1032 17.9151C18.1004 17.9188 18.0992 17.9188 18.0959 17.9188L16.1854 14.0516H16.965L18.1032 17.9151ZM19.0476 12.6014C19.0476 12.8679 18.8339 13.0848 18.5714 13.0848H1.42858C1.16608 13.0848 0.952388 12.8679 0.952388 12.6014V12.5108C0.952388 12.2443 1.16608 12.0274 1.42858 12.0274H18.5714C18.8339 12.0274 19.0476 12.2443 19.0476 12.5108V12.6014H19.0476Z" fill="#7065F0"/>
<path d="M11.0995 9.77061L15.8346 3.64007L15.0866 3.02124L10.9455 8.38257L7.43206 5.5603L6.84485 6.34321L6.84638 6.34442L4.16797 9.9298L4.92561 10.536L7.60288 6.95213L10.6922 9.43371L11.0995 9.77061Z" fill="#7065F0" fill-opacity="0.5"/>
</svg>
