<svg width="20" height="21" viewBox="0 0 20 21" fill="none" xmlns="http://www.w3.org/2000/svg">
<path d="M15.3531 4.02324H17.9343V15.4873H15.3531V4.02324ZM10.1907 0.53418H12.7719V15.4873H10.1907V0.53418ZM5.02832 5.87458H7.60952V15.4873H5.02832V5.87458ZM0.898438 17.0894H19.483V19.7596H0.898438V17.0894Z" fill="#7065F0" fill-opacity="0.5"/>
<path d="M18.4511 14.9531H18.356C18.4138 14.7852 18.4511 14.6072 18.4511 14.4191V5.0911C18.4511 4.20765 17.7564 3.48898 16.9024 3.48898H13.805C13.6231 3.48898 13.451 3.52755 13.2887 3.5874V1.60212C13.2887 0.71867 12.594 0 11.74 0H8.64261C7.78861 0 7.09389 0.71867 7.09389 1.60212V5.58117C6.93163 5.52133 6.75956 5.48276 6.57765 5.48276H3.48025C2.62624 5.48276 1.93153 6.20143 1.93153 7.08488V14.4191C1.93153 14.6072 1.96884 14.7852 2.02669 14.9531H1.93153C1.07753 14.9531 0.382812 15.6718 0.382812 16.5552V18.6914C0.382812 19.5748 1.07753 20.2935 1.93153 20.2935H18.4511C19.3051 20.2935 19.9998 19.5748 19.9998 18.6914V16.5552C19.9998 15.6717 19.3051 14.9531 18.4511 14.9531ZM13.2888 5.0911C13.2888 4.79671 13.5202 4.55707 13.805 4.55707H16.9024C17.1873 4.55707 17.4187 4.79671 17.4187 5.0911V14.4191C17.4187 14.7135 17.1873 14.9531 16.9024 14.9531H13.805C13.5201 14.9531 13.2887 14.7135 13.2887 14.4191V5.0911H13.2888ZM8.12637 7.08488V1.60212C8.12637 1.30773 8.35803 1.06808 8.64261 1.06808H11.74C12.0249 1.06808 12.2563 1.30773 12.2563 1.60212V14.4191C12.2563 14.7135 12.0249 14.9531 11.74 14.9531H8.64261C8.35803 14.9531 8.12637 14.7135 8.12637 14.4191V7.08488ZM2.96401 7.08488C2.96401 6.79049 3.19567 6.55084 3.48025 6.55084H6.57768C6.86226 6.55084 7.09392 6.79049 7.09392 7.08488V14.4191C7.09392 14.7135 6.86226 14.9531 6.57768 14.9531H3.48025C3.19567 14.9531 2.96401 14.7135 2.96401 14.4191V7.08488ZM18.9674 18.6914C18.9674 18.9857 18.736 19.2254 18.4511 19.2254H1.93153C1.64695 19.2254 1.41529 18.9857 1.41529 18.6914V16.5552C1.41529 16.2608 1.64695 16.0212 1.93153 16.0212H18.4512C18.736 16.0212 18.9674 16.2608 18.9674 16.5552V18.6914H18.9674Z" fill="#7065F0"/>
</svg>
