<svg width="20" height="20" viewBox="0 0 20 20" fill="none" xmlns="http://www.w3.org/2000/svg">
<path d="M11.3849 12.6742H15.2142V18.6162H11.3849V12.6742ZM4.68359 9.20801H8.03424V12.6742H4.68359V9.20801Z" fill="#7065F0" fill-opacity="0.5"/>
<path d="M19.8298 8.02708L17.9506 6.38993C17.9429 6.38166 17.9337 6.37581 17.9255 6.36811L11.3551 0.644253C10.8166 0.174955 10.0362 0.176655 9.49999 0.648602L6.11895 3.62159V1.7804C6.11895 0.961242 5.47481 0.294892 4.68295 0.294892C3.8911 0.294892 3.24696 0.961242 3.24696 1.7804V6.14694L0.543717 8.52394C0.342238 8.70092 0.317712 9.01357 0.489034 9.22172C0.583684 9.33705 0.718326 9.39627 0.853886 9.39627C0.963493 9.39627 1.07358 9.35758 1.16357 9.27829L2.28966 8.2881V17.8142C2.28966 18.6333 2.9338 19.2997 3.72565 19.2997H16.6496C17.4415 19.2997 18.0856 18.6333 18.0856 17.8142V7.8024L19.2133 8.78482C19.2995 8.86002 19.4086 8.90122 19.5213 8.9011C19.5912 8.90117 19.6601 8.88543 19.7235 8.85498C19.7868 8.82453 19.8429 8.78011 19.8878 8.72485C20.058 8.51572 20.032 8.20333 19.8298 8.02708ZM17.1282 17.8142C17.1282 18.0871 16.9134 18.3093 16.6496 18.3093H3.72563C3.46176 18.3093 3.24696 18.0871 3.24696 17.8142V7.44632L4.03555 6.75289C4.04053 6.74854 4.04239 6.7422 4.04715 6.73767C4.07284 6.71327 4.09106 6.6834 4.11111 6.65373C4.12718 6.62988 4.14596 6.60843 4.15751 6.58251C4.16947 6.55594 4.17322 6.52652 4.18051 6.49762C4.18904 6.46338 4.19914 6.4305 4.2005 6.39526C4.20076 6.38841 4.20432 6.38264 4.20432 6.37571V1.7804C4.20432 1.50743 4.41911 1.28523 4.68298 1.28523C4.94685 1.28523 5.16164 1.50743 5.16164 1.7804V4.69217C5.16164 5.08735 5.62702 5.40372 5.95023 5.06936L10.1198 1.40322C10.2986 1.24559 10.5585 1.24509 10.7383 1.40177L17.1283 6.96844V17.8142H17.1282Z" fill="#7065F0"/>
</svg>
