<svg width="20" height="21" viewBox="0 0 20 21" fill="none" xmlns="http://www.w3.org/2000/svg">
<path d="M4.6875 9.21045H8.03662V12.6751H4.6875V9.21045ZM17.093 11.2067C16.2754 10.3328 14.9237 10.3101 14.0796 11.156C13.6705 11.5656 13.4402 12.1154 13.4311 12.7041C13.4244 13.1236 13.5353 13.5249 13.7401 13.8752L13.0484 14.5679L12.4415 13.9193C12.2576 13.7228 11.9544 13.718 11.7649 13.9077C11.575 14.0979 11.5701 14.4113 11.7537 14.6076L12.3609 15.2564L11.9076 15.7103L10.9244 14.6597C10.7408 14.4633 10.4378 14.4587 10.2478 14.6486C10.0581 14.8386 10.0532 15.152 10.2371 15.3485L11.22 16.3988L10.9328 16.6864C10.7428 16.8766 10.7379 17.1901 10.9216 17.3863C10.9661 17.4341 11.0196 17.472 11.0787 17.4979C11.1377 17.5238 11.2013 17.5372 11.2654 17.5371C11.3896 17.5373 11.5089 17.4873 11.5981 17.3979L12.2292 16.7659C12.2293 16.7658 12.2295 16.7658 12.2296 16.7657C12.2297 16.7656 12.2297 16.7654 12.2298 16.7653L13.3699 15.6237L13.3701 15.6236L13.3702 15.6234L14.4057 14.5864C14.7376 14.8096 15.1217 14.9373 15.5273 14.9442C15.539 14.9445 15.5509 14.9445 15.5628 14.9445C16.1188 14.9445 16.6435 14.7248 17.044 14.3239C17.453 13.9142 17.6834 13.3644 17.6925 12.7757C17.7018 12.1869 17.489 11.6297 17.093 11.2067Z" fill="#7065F0" fill-opacity="0.5"/>
<path d="M19.9991 13.9125C19.9991 12.1265 19.2594 10.5196 18.0854 9.38924V7.80565L19.2126 8.78764C19.2987 8.86281 19.4078 8.90399 19.5205 8.90387C19.5902 8.90394 19.6592 8.8882 19.7225 8.85777C19.7858 8.82733 19.8418 8.78294 19.8868 8.72769C20.0568 8.51864 20.0309 8.2064 19.8288 8.03022L11.3579 0.650722C10.8189 0.18115 10.0394 0.183075 9.50367 0.655072L6.12415 3.62651V1.78635C6.12415 0.967562 5.4803 0.301512 4.68881 0.301512C3.89732 0.301512 3.25347 0.967562 3.25347 1.78635V6.15066L0.551454 8.52684C0.350071 8.70375 0.325545 9.01624 0.496795 9.22431C0.591421 9.3396 0.725966 9.39879 0.861477 9.39879C0.971037 9.39879 1.08108 9.36012 1.17102 9.28086L2.29658 8.29102V17.7606C2.29658 18.5794 2.94042 19.2454 3.73191 19.2454H11.0015C11.8885 19.7846 12.9175 20.0993 14.0185 20.0993C15.2432 20.0993 16.3823 19.7152 17.3314 19.0593C17.4572 18.9883 17.5742 18.9035 17.6737 18.7985C19.0853 17.6658 19.9991 15.8995 19.9991 13.9125ZM3.25347 17.7606V7.44954L4.0417 6.75636C4.04665 6.75201 4.04853 6.74567 4.0533 6.74114C4.07896 6.71677 4.09718 6.6869 4.11721 6.65725C4.13328 6.63343 4.15205 6.61196 4.16358 6.58608C4.17552 6.55954 4.17929 6.53011 4.18656 6.50122C4.19509 6.467 4.20519 6.43412 4.20654 6.3989C4.20681 6.39205 4.21036 6.38628 4.21036 6.37936V1.78637C4.21036 1.51353 4.42506 1.29143 4.68881 1.29143C4.95256 1.29143 5.16725 1.51353 5.16725 1.78637V4.69659C5.16725 4.72074 5.17731 4.74141 5.18054 4.76464C5.18518 4.79911 5.18852 4.83263 5.20029 4.8658C5.2123 4.89957 5.23105 4.92792 5.24953 4.95777C5.2614 4.97714 5.2665 4.99911 5.28128 5.01706C5.28551 5.02218 5.29163 5.02416 5.296 5.02908C5.31954 5.05558 5.34834 5.07438 5.37692 5.09505C5.40012 5.11175 5.421 5.1313 5.4462 5.14332C5.47133 5.15539 5.49917 5.15914 5.52645 5.16662C5.56021 5.17577 5.59268 5.18636 5.62746 5.18774C5.63388 5.18801 5.63925 5.19154 5.64575 5.19154C5.66839 5.19154 5.68777 5.18137 5.70957 5.17822C5.74376 5.17344 5.77698 5.16979 5.80987 5.15724C5.84206 5.14494 5.86902 5.12575 5.89754 5.10692C5.91646 5.0945 5.93799 5.0891 5.95553 5.0736L10.1235 1.40911C10.302 1.25178 10.562 1.25153 10.7414 1.40791L17.1355 6.97816C17.1346 6.99071 17.1285 7.00139 17.1285 7.01419V8.63808C16.2209 8.06327 15.1584 7.72573 14.0186 7.72573C10.7208 7.72573 8.03796 10.5011 8.03796 13.9126C8.03796 15.6039 8.69865 17.1377 9.76553 18.2556H3.73191C3.46816 18.2556 3.25347 18.0335 3.25347 17.7606ZM8.99485 13.9125C8.99485 11.047 11.2486 8.71559 14.0186 8.71559C16.7886 8.71559 19.0423 11.047 19.0423 13.9125C19.0423 16.7781 16.7886 19.1095 14.0186 19.1095C11.2486 19.1095 8.99485 16.778 8.99485 13.9125Z" fill="#7065F0"/>
</svg>
