<svg width="20" height="21" viewBox="0 0 20 21" fill="none" xmlns="http://www.w3.org/2000/svg">
<path d="M3.9307 11.3994H2.41797V12.9121H3.9307V11.3994Z" fill="#7065F0"/>
<path d="M6.60259 11.3994H5.08984V12.9121H6.60259V11.3994Z" fill="#7065F0"/>
<path d="M3.9307 14.1282H2.41797V15.6409H3.9307V14.1282Z" fill="#7065F0"/>
<path d="M6.60259 14.1282H5.08984V15.6409H6.60259V14.1282Z" fill="#7065F0"/>
<path d="M7.33696 6.08838H5.82422V7.60112H7.33696V6.08838Z" fill="#7065F0"/>
<path d="M10.0127 6.08838H8.5V7.60112H10.0127V6.08838Z" fill="#7065F0"/>
<path d="M8.52417 8.45982H4.66773V5.23058L11.154 2.76547V7.02283H11.1282V15.4979C11.1988 15.4458 11.2739 15.3999 11.3525 15.3609C11.5807 15.2478 11.8745 15.1208 12.1841 14.9957V7.02283L12.1826 2.72428C12.1824 2.02432 11.4816 1.54118 10.8273 1.78988L4.2843 4.27695C3.89619 4.42448 3.63961 4.7965 3.63961 5.2117V8.11645H1.15234C0.60006 8.11645 0.152344 8.56417 0.152344 9.11645V17.9236C0.152344 18.4759 0.600059 18.9236 1.15234 18.9236H10.3085V18.9117C10.3085 18.878 10.3164 18.4354 10.3502 17.8955H8.52417V8.45982ZM7.83943 17.8955H1.18046V9.14457H7.83943V17.8955Z" fill="#7065F0"/>
<path d="M19.6764 16.6405C19.6523 16.5002 19.5955 16.3675 19.5106 16.2531C19.4257 16.1388 19.3151 16.046 19.1877 15.9823C18.3379 15.5587 16.4728 14.9326 16.4728 14.9326H16.315L15.8047 15.6135L16.2831 18.9238H19.8479C19.8349 18.1601 19.7777 17.3977 19.6764 16.6405Z" fill="#7065F0"/>
<path d="M17.0758 12.9629L17.3326 11.6391C17.3667 11.3885 17.3467 11.1336 17.2741 10.8914C17.2015 10.6492 17.0779 10.4253 16.9116 10.2348C16.7452 10.0443 16.5401 9.89163 16.3099 9.787C16.0797 9.68237 15.8298 9.62821 15.5769 9.62817H15.2718C15.019 9.62821 14.769 9.68237 14.5388 9.787C14.3086 9.89164 14.1035 10.0443 13.9372 10.2348C13.7709 10.4253 13.6473 10.6492 13.5746 10.8914C13.502 11.1336 13.4821 11.3885 13.5162 11.6391L13.773 12.9629C13.8475 13.3461 14.0531 13.6915 14.3544 13.9398C14.6557 14.1882 15.0339 14.324 15.4244 14.324C15.8148 14.324 16.1931 14.1882 16.4944 13.9398C16.7957 13.6915 17.0012 13.3461 17.0758 12.9629Z" fill="#7065F0"/>
<path d="M14.3789 14.9326C14.3789 14.9326 12.5139 15.5587 11.6641 15.9823C11.5367 16.046 11.4261 16.1388 11.3412 16.2531C11.2563 16.3675 11.1995 16.5002 11.1754 16.6405C11.0741 17.3977 11.0168 18.1601 11.0039 18.9238H14.5686L15.0471 15.6135L14.5367 14.9326H14.3789Z" fill="#7065F0"/>
</svg>
