<svg width="18" height="17" viewBox="0 0 18 17" fill="none" xmlns="http://www.w3.org/2000/svg">
<path d="M17.1229 5.0388L16.923 4.94396L14.4676 3.29449L14.3049 3.19238L12.8539 3.60321C12.3682 2.15021 10.9636 1.06359 9.35957 0.931386C8.20964 0.83558 7.11102 1.1901 6.26542 1.92668C5.43149 2.65312 4.95324 3.68591 4.95324 4.76018C4.95324 5.10679 5.00414 5.45147 5.10401 5.78891L4.18997 6.04689L1.49457 4.5854L1.24638 4.48271L0.875 4.71639V14.0715L0.876 14.3005L3.90896 15.9437L4.0714 16.0458L14.1634 13.1978L16.6755 14.8855L17.1237 14.665V5.28243L17.1229 5.0388ZM6.82257 2.5038C7.49588 1.91753 8.37186 1.63624 9.28832 1.71157C10.6244 1.82191 11.7887 2.76405 12.1198 4.00315C12.1466 4.10354 12.16 4.20375 12.1762 4.30396C12.1885 4.38016 12.201 4.45636 12.2072 4.53236C12.2129 4.60278 12.2124 4.67292 12.2129 4.74314C12.2134 4.81579 12.2159 4.88853 12.2109 4.96081C12.2049 5.0446 12.1905 5.12786 12.1771 5.21119C12.1678 5.2689 12.1628 5.32698 12.15 5.38435C12.118 5.52602 12.0768 5.66704 12.023 5.80692L9.48218 9.99951L9.38207 10.1647C9.26716 10.3543 9.07616 10.375 8.99927 10.375C8.92258 10.375 8.73156 10.3543 8.61663 10.1646L6.00937 5.863L5.96847 5.78633C5.84236 5.45161 5.77771 5.10668 5.77771 4.7602C5.77771 3.90488 6.15853 3.08244 6.82257 2.5038ZM16.2993 13.6734L14.6503 12.5658V8.95806C14.6503 8.74179 14.4658 8.56644 14.2381 8.56644C14.0105 8.56644 13.8259 8.74179 13.8259 8.95806V12.4761L4.18997 15.1955L1.69947 13.8462V5.59812L3.89508 6.78763V10.1522C3.89508 10.3685 4.07966 10.5439 4.30732 10.5439C4.53497 10.5439 4.71955 10.3685 4.71955 10.1522V6.71367L5.44861 6.50718L7.87394 10.509L7.90207 10.5555L7.90233 10.5558L8.61683 11.7348C8.69554 11.864 8.84207 11.9445 8.99947 11.9445C8.99947 11.9445 9.22547 11.9752 9.38455 11.7303C9.57177 11.4421 10.0961 10.5563 10.0961 10.5563C10.0962 10.556 10.0965 10.5558 10.0967 10.5555L12.7548 6.16931L12.7834 6.11193C12.7838 6.11091 12.784 6.10983 12.7844 6.1088C12.8324 5.98763 12.8712 5.86458 12.9059 5.74085C12.9167 5.70261 12.9268 5.66422 12.9364 5.62568C12.9631 5.51683 12.9858 5.40738 13.0024 5.29723C13.0083 5.25832 13.0125 5.21928 13.017 5.18028C13.0287 5.08029 13.0362 4.9799 13.0396 4.87935C13.0408 4.83862 13.042 4.79789 13.0419 4.75706C13.0418 4.6289 13.0367 4.50071 13.023 4.37268C13.023 4.3722 13.023 4.37173 13.0229 4.37124L14.1634 4.04922L16.2992 5.48413V13.6734H16.2993Z" fill="#7065F0"/>
<path d="M7.16016 4.8817C7.16016 5.11099 7.20769 5.33802 7.30005 5.54985C7.39242 5.76168 7.52779 5.95416 7.69845 6.11628C7.86911 6.27841 8.07172 6.40702 8.29469 6.49476C8.51767 6.5825 8.75666 6.62767 8.99801 6.62767C9.23936 6.62767 9.47835 6.5825 9.70133 6.49476C9.92431 6.40702 10.1269 6.27841 10.2976 6.11628C10.4682 5.95416 10.6036 5.76168 10.696 5.54985C10.7883 5.33802 10.8359 5.11099 10.8359 4.8817C10.8359 4.65242 10.7883 4.42538 10.696 4.21355C10.6036 4.00172 10.4682 3.80925 10.2976 3.64712C10.1269 3.485 9.92431 3.35639 9.70133 3.26865C9.47835 3.1809 9.23936 3.13574 8.99801 3.13574C8.75666 3.13574 8.51767 3.1809 8.29469 3.26865C8.07172 3.35639 7.86911 3.485 7.69845 3.64712C7.52779 3.80925 7.39242 4.00172 7.30005 4.21355C7.20769 4.42538 7.16016 4.65242 7.16016 4.8817Z" fill="#7065F0" fill-opacity="0.5"/>
</svg>
