<svg width="19" height="23" viewBox="0 0 19 23" fill="none" xmlns="http://www.w3.org/2000/svg">
<path opacity="0.35" d="M0 21.85V1.15C0 0.5152 0.5152 0 1.15 0H14.95C16.8555 0 18.4 1.54445 18.4 3.45V19.55C18.4 21.4556 16.8555 23 14.95 23H1.15C0.5152 23 0 22.4848 0 21.85Z" fill="#7065F0"/>
<path d="M12.0766 5.75012C11.6327 5.75012 6.77046 5.75012 6.32656 5.75012C5.37436 5.75012 4.60156 6.52292 4.60156 7.47512C4.60156 8.42732 5.37436 9.20012 6.32656 9.20012C6.77046 9.20012 11.6327 9.20012 12.0766 9.20012C13.0288 9.20012 13.8016 8.42732 13.8016 7.47512C13.8016 6.52292 13.0288 5.75012 12.0766 5.75012Z" fill="#7065F0"/>
</svg>
