<svg width="24" height="23" viewBox="0 0 24 23" fill="none" xmlns="http://www.w3.org/2000/svg">
<path fill-rule="evenodd" clip-rule="evenodd" d="M10.4389 0.891895L7.62618 6.1953C7.59421 6.25697 7.54739 6.3095 7.49143 6.35061C7.43547 6.39173 7.37038 6.41913 7.30186 6.43055L1.38863 7.46748C0.776519 7.57483 0.274043 8.01107 0.0821885 8.60148C-0.109666 9.19189 0.0399349 9.84054 0.47275 10.2871L4.64787 14.6015C4.69583 14.6517 4.73238 14.7123 4.75407 14.7774C4.77577 14.8436 4.78148 14.9133 4.77235 14.9829L3.9307 20.927C3.84391 21.5414 4.10314 22.1546 4.60562 22.5201C5.10809 22.8855 5.77045 22.9426 6.32888 22.6697L11.7214 20.0317C11.7842 20.0008 11.8527 19.986 11.9224 19.986V0C11.3 0 10.7301 0.343739 10.4389 0.891895Z" fill="#7065F0"/>
<path opacity="0.35" fill-rule="evenodd" clip-rule="evenodd" d="M19.1952 14.6004L23.3703 10.2859C23.802 9.8394 23.9528 9.19075 23.7609 8.60034C23.569 8.00993 23.0666 7.57369 22.4545 7.46634L16.5412 6.43055C16.4727 6.41799 16.4076 6.39058 16.3517 6.35061C16.2957 6.3095 16.2489 6.25697 16.2169 6.1953L13.4042 0.890753C13.113 0.343739 12.5431 0 11.9219 0V19.9848C11.9915 19.9848 12.0601 20.0008 12.1229 20.0305L17.5153 22.6685C18.0738 22.9415 18.7361 22.8832 19.2386 22.5189C19.7411 22.1535 20.0003 21.5414 19.9135 20.9258L19.0719 14.9818C19.0616 14.9133 19.0685 14.8425 19.0902 14.7762C19.1107 14.7111 19.1473 14.6506 19.1952 14.6004Z" fill="#7065F0"/>
</svg>
