<svg width="69" height="30" viewBox="0 0 69 30" fill="none" xmlns="http://www.w3.org/2000/svg">
<g clip-path="url(#clip0_1879_3020)">
<path d="M15.5 30.0166C23.7843 30.0166 30.5 23.3009 30.5 15.0166C30.5 6.73237 23.7843 0.0167236 15.5 0.0167236C7.21573 0.0167236 0.5 6.73237 0.5 15.0166C0.5 23.3009 7.21573 30.0166 15.5 30.0166Z" fill="#666666"/>
<path d="M0.5 45C8.78427 45 15.5 38.2843 15.5 30C15.5 21.7157 8.78427 15 0.5 15C-7.78427 15 -14.5 21.7157 -14.5 30C-14.5 38.2843 -7.78427 45 0.5 45Z" fill="#141414"/>
<path d="M30.5 45C38.7843 45 45.5 38.2843 45.5 30C45.5 21.7157 38.7843 15 30.5 15C22.2157 15 15.5 21.7157 15.5 30C15.5 38.2843 22.2157 45 30.5 45Z" fill="#141414"/>
<path d="M0.5 15C8.78427 15 15.5 8.28427 15.5 0C15.5 -8.28427 8.78427 -15 0.5 -15C-7.78427 -15 -14.5 -8.28427 -14.5 0C-14.5 8.28427 -7.78427 15 0.5 15Z" fill="#141414"/>
<path d="M30.5 15C38.7843 15 45.5 8.28427 45.5 0C45.5 -8.28427 38.7843 -15 30.5 -15C22.2157 -15 15.5 -8.28427 15.5 0C15.5 8.28427 22.2157 15 30.5 15Z" fill="#141414"/>
</g>
<g clip-path="url(#clip1_1879_3020)">
<path d="M45.5 24.01C50.4706 24.01 54.5 19.9805 54.5 15.01C54.5 10.0394 50.4706 6.01001 45.5 6.01001C40.5294 6.01001 36.5 10.0394 36.5 15.01C36.5 19.9805 40.5294 24.01 45.5 24.01Z" fill="#333333"/>
<path d="M36.5 33C41.4706 33 45.5 28.9706 45.5 24C45.5 19.0294 41.4706 15 36.5 15C31.5294 15 27.5 19.0294 27.5 24C27.5 28.9706 31.5294 33 36.5 33Z" fill="#141414"/>
<path d="M54.5 33C59.4706 33 63.5 28.9706 63.5 24C63.5 19.0294 59.4706 15 54.5 15C49.5294 15 45.5 19.0294 45.5 24C45.5 28.9706 49.5294 33 54.5 33Z" fill="#141414"/>
<path d="M36.5 15C41.4706 15 45.5 10.9706 45.5 6C45.5 1.02944 41.4706 -3 36.5 -3C31.5294 -3 27.5 1.02944 27.5 6C27.5 10.9706 31.5294 15 36.5 15Z" fill="#141414"/>
<path d="M54.5 15C59.4706 15 63.5 10.9706 63.5 6C63.5 1.02944 59.4706 -3 54.5 -3C49.5294 -3 45.5 1.02944 45.5 6C45.5 10.9706 49.5294 15 54.5 15Z" fill="#141414"/>
</g>
<g clip-path="url(#clip2_1879_3020)">
<path d="M64.7 19.2048C67.0196 19.2048 68.9 17.3244 68.9 15.0048C68.9 12.6852 67.0196 10.8048 64.7 10.8048C62.3804 10.8048 60.5 12.6852 60.5 15.0048C60.5 17.3244 62.3804 19.2048 64.7 19.2048Z" fill="#333333"/>
<path d="M60.5008 23.4001C62.8204 23.4001 64.7008 21.5197 64.7008 19.2001C64.7008 16.8805 62.8204 15.0001 60.5008 15.0001C58.1812 15.0001 56.3008 16.8805 56.3008 19.2001C56.3008 21.5197 58.1812 23.4001 60.5008 23.4001Z" fill="#141414"/>
<path d="M68.8992 23.4001C71.2188 23.4001 73.0992 21.5197 73.0992 19.2001C73.0992 16.8805 71.2188 15.0001 68.8992 15.0001C66.5796 15.0001 64.6992 16.8805 64.6992 19.2001C64.6992 21.5197 66.5796 23.4001 68.8992 23.4001Z" fill="#141414"/>
<path d="M60.5008 15.0001C62.8204 15.0001 64.7008 13.1197 64.7008 10.8001C64.7008 8.4805 62.8204 6.6001 60.5008 6.6001C58.1812 6.6001 56.3008 8.4805 56.3008 10.8001C56.3008 13.1197 58.1812 15.0001 60.5008 15.0001Z" fill="#141414"/>
<path d="M68.8992 15.0001C71.2188 15.0001 73.0992 13.1197 73.0992 10.8001C73.0992 8.4805 71.2188 6.6001 68.8992 6.6001C66.5796 6.6001 64.6992 8.4805 64.6992 10.8001C64.6992 13.1197 66.5796 15.0001 68.8992 15.0001Z" fill="#141414"/>
</g>
<defs>
<clipPath id="clip0_1879_3020">
<rect width="30" height="30" fill="white" transform="translate(0.5)"/>
</clipPath>
<clipPath id="clip1_1879_3020">
<rect width="18" height="18" fill="white" transform="translate(36.5 6)"/>
</clipPath>
<clipPath id="clip2_1879_3020">
<rect width="8.4" height="8.4" fill="white" transform="translate(60.5 10.8)"/>
</clipPath>
</defs>
</svg>
