<svg width="30" height="30" viewBox="0 0 30 30" fill="none" xmlns="http://www.w3.org/2000/svg">
<path fill-rule="evenodd" clip-rule="evenodd" d="M12.26 0.666748H12.3346C12.5999 0.666748 12.8542 0.772105 13.0417 0.959641C13.2293 1.14718 13.3346 1.40153 13.3346 1.66675C13.3346 1.93196 13.2293 2.18632 13.0417 2.37385C12.8542 2.56139 12.5999 2.66675 12.3346 2.66675C9.79197 2.66675 7.98664 2.66941 6.61464 2.85342C5.27464 3.03341 4.5013 3.37208 3.9373 3.93608C3.3733 4.50008 3.03464 5.27341 2.85464 6.61475C2.67064 7.98541 2.66797 9.79075 2.66797 12.3334C2.66797 12.5986 2.56261 12.853 2.37508 13.0405C2.18754 13.2281 1.93319 13.3334 1.66797 13.3334C1.40275 13.3334 1.1484 13.2281 0.960862 13.0405C0.773326 12.853 0.667969 12.5986 0.667969 12.3334V12.2587C0.667969 9.80808 0.667969 7.86675 0.871969 6.34808C1.08264 4.78542 1.5253 3.52008 2.52264 2.52141C3.5213 1.52408 4.78664 1.08141 6.3493 0.870748C7.8693 0.666748 9.8093 0.666748 12.26 0.666748ZM23.3866 2.85342C22.0173 2.66941 20.2106 2.66675 17.668 2.66675C17.4028 2.66675 17.1484 2.56139 16.9609 2.37385C16.7733 2.18632 16.668 1.93196 16.668 1.66675C16.668 1.40153 16.7733 1.14718 16.9609 0.959641C17.1484 0.772105 17.4028 0.666748 17.668 0.666748H17.7426C20.1933 0.666748 22.1346 0.666748 23.6533 0.870748C25.216 1.08141 26.4813 1.52408 27.48 2.52141C28.4773 3.52008 28.92 4.78542 29.1306 6.34808C29.3346 7.86808 29.3346 9.80808 29.3346 12.2587V12.3334C29.3346 12.5986 29.2293 12.853 29.0417 13.0405C28.8542 13.2281 28.5999 13.3334 28.3346 13.3334C28.0694 13.3334 27.8151 13.2281 27.6275 13.0405C27.44 12.853 27.3346 12.5986 27.3346 12.3334C27.3346 9.79075 27.332 7.98541 27.148 6.61341C26.968 5.27342 26.6293 4.50008 26.0653 3.93608C25.5013 3.37208 24.728 3.03341 23.3866 2.85342ZM1.66797 16.6667C1.93319 16.6667 2.18754 16.7721 2.37508 16.9596C2.56261 17.1472 2.66797 17.4015 2.66797 17.6667C2.66797 20.2094 2.67064 22.0161 2.85464 23.3867C3.03464 24.7267 3.3733 25.5001 3.9373 26.0641C4.5013 26.6281 5.27464 26.9667 6.61597 27.1467C7.98664 27.3307 9.79197 27.3334 12.3346 27.3334C12.5999 27.3334 12.8542 27.4388 13.0417 27.6263C13.2293 27.8138 13.3346 28.0682 13.3346 28.3334C13.3346 28.5986 13.2293 28.853 13.0417 29.0405C12.8542 29.2281 12.5999 29.3334 12.3346 29.3334H12.26C9.8093 29.3334 7.86797 29.3334 6.3493 29.1294C4.78664 28.9187 3.5213 28.4761 2.52264 27.4787C1.5253 26.4801 1.08264 25.2147 0.871969 23.6521C0.667969 22.1321 0.667969 20.1921 0.667969 17.7414V17.6667C0.667969 17.4015 0.773326 17.1472 0.960862 16.9596C1.1484 16.7721 1.40275 16.6667 1.66797 16.6667ZM28.3346 16.6667C28.5999 16.6667 28.8542 16.7721 29.0417 16.9596C29.2293 17.1472 29.3346 17.4015 29.3346 17.6667V17.7414C29.3346 20.1921 29.3346 22.1334 29.1306 23.6521C28.92 25.2147 28.4773 26.4801 27.48 27.4787C26.4813 28.4761 25.216 28.9187 23.6533 29.1294C22.1333 29.3334 20.1933 29.3334 17.7426 29.3334H17.668C17.4028 29.3334 17.1484 29.2281 16.9609 29.0405C16.7733 28.853 16.668 28.5986 16.668 28.3334C16.668 28.0682 16.7733 27.8138 16.9609 27.6263C17.1484 27.4388 17.4028 27.3334 17.668 27.3334C20.2106 27.3334 22.0173 27.3307 23.388 27.1467C24.728 26.9667 25.5013 26.6281 26.0653 26.0641C26.6293 25.5001 26.968 24.7267 27.148 23.3854C27.332 22.0161 27.3346 20.2094 27.3346 17.6667C27.3346 17.4015 27.44 17.1472 27.6275 16.9596C27.8151 16.7721 28.0694 16.6667 28.3346 16.6667Z" fill="#0F0B3E"/>
</svg>
