<svg width="18" height="21" viewBox="0 0 18 21" fill="none" xmlns="http://www.w3.org/2000/svg">
<path d="M1 14.9897V17.6835C1 17.9193 1.04645 18.1528 1.13668 18.3707C1.22692 18.5885 1.35919 18.7865 1.52593 18.9532C1.69267 19.1199 1.89061 19.2522 2.10847 19.3424C2.32632 19.4327 2.55982 19.4791 2.79563 19.4791H15.3663C15.6021 19.4791 15.8356 19.4327 16.0534 19.3424C16.2713 19.2522 16.4692 19.1199 16.6359 18.9532C16.8027 18.7865 16.935 18.5885 17.0252 18.3707C17.1154 18.1528 17.1619 17.9193 17.1619 17.6835V14.9897" stroke="white" stroke-width="1.25" stroke-linecap="round" stroke-linejoin="round"/>
<path d="M5.48828 10.5L9.07953 14.0913L12.6714 10.5" stroke="white" stroke-width="1.25" stroke-linecap="round" stroke-linejoin="round"/>
<path d="M9.08203 1.52148V14.0921" stroke="white" stroke-width="1.25" stroke-linecap="round" stroke-linejoin="round"/>
</svg>
